<?xml version="1.0" standalone="no"?>
<!DOCTYPE svg PUBLIC "-//W3C//DTD SVG 1.1//EN" "http://www.w3.org/Graphics/SVG/1.1/DTD/svg11.dtd" >
<svg xmlns="http://www.w3.org/2000/svg">
<metadata>Generated by IcoMoon</metadata>
<defs>
<font id="flowci" horiz-adv-x="1024">
<font-face units-per-em="1024" ascent="960" descent="-64" />
<missing-glyph horiz-adv-x="1024" />
<glyph unicode="&#x20;" horiz-adv-x="512" d="" />
<glyph unicode="&#xe147;" glyph-name="add_circle" d="M769.202 410.321v100.958h-206.723v206.723h-100.958v-206.723h-206.723v-100.958h206.723v-206.723h100.958v206.723h206.723zM512 972.8c283.643 0 512-228.357 512-512s-228.357-512-512-512-512 228.357-512 512 228.357 512 512 512z" />
<glyph unicode="&#xe314;" glyph-name="arrow-left" d="M828 68.8l-120-120-512 512 512 512 120-120-392-392z" />
<glyph unicode="&#xe3ba;" glyph-name="control_point" d="M512 49.758c225.953 0 411.042 185.089 411.042 411.042s-185.089 411.042-411.042 411.042-411.042-185.089-411.042-411.042 185.089-411.042 411.042-411.042zM512 972.8c283.643 0 512-228.357 512-512s-228.357-512-512-512-512 228.357-512 512 228.357 512 512 512zM562.479 718.002v-206.723h206.723v-100.958h-206.723v-206.723h-100.958v206.723h-206.723v100.958h206.723v206.723h100.958z" />
<glyph unicode="&#xe606;" glyph-name="caretdown" d="M76 568l403-489q13-15 32-15t32 15l405 489q18 20 7 45t-39 25h-808q-28 0-39-25t7-45z" />
<glyph unicode="&#xe64d;" glyph-name="loading" d="M988 424.8q-15 0-25.5 10.5t-10.5 25.5q0 90-35 171-33 79-94 140t-140 95q-81 34-171 34-15 0-25.5 10.5t-10.5 25.5 10.5 25.5 25.5 10.5q104 0 199-40 92-39 163-110t110-163q40-95 40-199 0-15-10.5-25.5t-25.5-10.5z" />
<glyph unicode="&#xe6ae;" glyph-name="loading1" d="M512-51.2q-104 0-199 40-92 39-163 110t-110 163q-40 95-40 199 0 15 10.5 25.5t25.5 10.5 25.5-10.5 10.5-25.5q0-90 35-171 33-79 94-140t140-95q81-34 171-34t171 35q79 33 140 94t95 140q34 81 34 171t-35 171q-33 79-94 140t-140 95q-81 34-171 34-15 0-25.5 10.5t-10.5 25.5 10.5 25.5 25.5 10.5q104 0 199-40 92-39 163-110t110-163q40-95 40-199t-40-199q-39-92-110-163t-163-110q-95-40-199-40z" />
<glyph unicode="&#xe834;" glyph-name="checkbox-checked" d="M397.333 162.667l512 512-80 82.667-432-432-202.667 202.667-80-80zM909.333 960c64 0 114.667-53.333 114.667-114.667v-794.667c0-61.333-50.667-114.667-114.667-114.667h-794.667c-64 0-114.667 53.333-114.667 114.667v794.667c0 61.333 50.667 114.667 114.667 114.667h794.667z" />
<glyph unicode="&#xe835;" glyph-name="checkbox-unchecked" d="M909.333 959.999c61.333 0 114.667-53.333 114.667-114.667v-794.666c0-61.333-53.333-114.667-114.667-114.667h-794.666c-61.333 0-114.667 53.333-114.667 114.667v794.666c0 61.333 53.333 114.667 114.667 114.667h794.666zM909.333 845.333h-794.666v-794.666h794.666v794.666z" />
<glyph unicode="&#xe837;" glyph-name="radio-unchecked" d="M512 36.958c225.953 0 411.042 185.089 411.042 411.042s-185.089 411.042-411.042 411.042-411.042-185.089-411.042-411.042 185.089-411.042 411.042-411.042zM512 960c283.644 0 512-228.356 512-512s-228.356-512-512-512-512 228.356-512 512 228.356 512 512 512z" />
<glyph unicode="&#xe838;" glyph-name="radio-checked" d="M512 36.958c225.953 0 411.042 185.089 411.042 411.042s-185.089 411.042-411.042 411.042-411.042-185.089-411.042-411.042 185.089-411.042 411.042-411.042zM512 960c283.643 0 512-228.357 512-512s-228.357-512-512-512-512 228.357-512 512 228.357 512 512 512zM512 705.202c141.822 0 257.202-115.38 257.202-257.202s-115.38-257.202-257.202-257.202-257.202 115.38-257.202 257.202 115.38 257.202 257.202 257.202z" />
<glyph unicode="&#xe900;" glyph-name="terminal" horiz-adv-x="896" d="M448 320h256v-64h-256v64zM256 256l192 192-192 192-48-48 144-144-144-144 48-48zM896 768v-640c0-35.2-28.8-64-64-64h-768c-35.2 0-64 28.8-64 64v640c0 35.2 28.8 64 64 64h768c35.2 0 64-28.8 64-64zM832 768h-768v-640h768v640z" />
<glyph unicode="&#xe901;" glyph-name="tag" horiz-adv-x="960" d="M494.72 849.28c-30.080 30.080-71.040 46.72-113.28 46.72h-157.44c-87.68 0-160-72.32-160-160v-158.080c0-42.24 17.28-83.2 46.72-113.28l387.84-387.84c24.96-24.96 65.28-24.96 90.24 0l293.76 293.76c11.563 11.54 18.716 27.495 18.716 45.12s-7.153 33.58-18.715 45.119l-0.001 0.001-387.84 388.48zM152.32 506.24c-19.84 19.2-30.080 44.8-30.080 72.32v157.44c0 56.32 46.080 101.76 101.76 101.76h158.080c26.88 0 53.12-10.24 72.32-30.080l392.96-392.32-302.72-302.72-392.32 393.6zM192.64 768h128v-128h-128.64v128h0.64z" />
<glyph unicode="&#xe902;" glyph-name="key" horiz-adv-x="1027" d="M230.227 529.571c39.695 0 71.451-30.565 71.451-68.772s-31.755-68.772-71.451-68.772c-39.695 0-71.452 30.565-71.452 68.772s31.754 68.772 71.452 68.772zM998.823 563.001c27.785-51.101 21.831-117.485-15.382-169.063-37.71-52.057-64.505-82.621-65.496-84.054l-27.29-31.522-73.932 68.771-71.946-65.428-68.472 63.040-56.070-59.698h-96.757c-54.085-64.951-136.948-106.977-229.736-106.977-161.757 0-293.745 126.559-293.745 282.73 0 155.691 131.985 282.73 293.745 282.73 92.786 0 175.65-42.026 229.736-106.977h342.867c59.046 0 107.176-26.743 132.482-73.548l-0.002-0.003zM918.439 437.874c20.344 28.178 24.312 63.518 9.924 89.785-11.412 21.012-32.748 32.475-62.024 32.475h-385.040c-36.222 63.518-106.68 106.977-187.558 106.977-118.093 0-214.352-92.651-214.352-206.316s96.261-206.314 214.352-206.314c80.877 0 151.338 43.459 187.558 106.977h103.702l86.833 93.129 73.437-67.339 71.946 65.428 65.993-61.608c9.924 12.418 21.831 28.178 35.229 46.803l-0.002 0.003z" />
<glyph unicode="&#xe903;" glyph-name="user" d="M512.201 408.229c-139.643 0-245.333 127.048-245.333 295.167 0 134.167 112.262 248.071 245.333 248.071s245.333-113.905 245.333-248.071c0-168.119-105.69-295.167-245.333-295.167zM512.201 866.586c-84.881 0-159.905-76.667-159.905-163.19 0-119.929 68.452-210.286 159.905-210.286s159.905 90.357 159.905 210.286c0 86.524-75.024 163.19-159.905 163.19zM144.749-29.867l7.666 81.595c16.976 164.286 204.262 200.429 359.786 200.429s342.809-36.143 359.786-199.881l7.666-82.143h87.619l-7.667 90.357c-19.166 179.071-176.881 277.643-447.405 277.643s-428.238-98.571-447.405-278.19l-7.667-89.81h87.619z" />
<glyph unicode="&#xe904;" glyph-name="agents" d="M321.421 164.473c0-24.185 19.607-43.791 43.791-43.791s43.792 19.606 43.792 43.791c0 24.185-19.607 43.792-43.792 43.792s-43.791-19.607-43.791-43.792v0zM175.446 164.473c0-24.185 19.607-43.791 43.792-43.791s43.792 19.606 43.792 43.791c0 24.185-19.607 43.792-43.792 43.792s-43.792-19.607-43.792-43.792v0zM321.421 466.153c0-24.186 19.607-43.792 43.791-43.792s43.792 19.606 43.792 43.792c0 24.185-19.607 43.791-43.792 43.791s-43.791-19.606-43.791-43.791v0zM175.446 466.153c0-24.186 19.607-43.792 43.792-43.792s43.792 19.606 43.792 43.792c0 24.185-19.607 43.791-43.792 43.791s-43.792-19.606-43.792-43.791v0zM321.421 762.967c0-24.188 19.607-43.793 43.791-43.793s43.792 19.606 43.792 43.793c0 24.184-19.607 43.791-43.792 43.791s-43.791-19.607-43.791-43.791v0zM175.446 762.967c0-24.188 19.607-43.793 43.792-43.793s43.792 19.606 43.792 43.793c0 24.184-19.607 43.791-43.792 43.791s-43.792-19.607-43.792-43.791v0zM589.518 119.839h231.485c21.398 0 38.813 17.408 38.813 38.81 0 21.399-17.409 38.813-38.813 38.813h-231.485c-21.395 0-38.808-17.411-38.808-38.813s17.409-38.81 38.808-38.81v0zM589.518 421.994h231.485c21.398 0 38.813 17.412 38.813 38.81s-17.409 38.811-38.813 38.811h-231.485c-21.395 0-38.808-17.412-38.808-38.811s17.409-38.81 38.808-38.81v0zM821.004 801.771h-231.485c-21.395 0-38.808-17.411-38.808-38.816 0-21.394 17.409-38.808 38.808-38.808h231.485c21.398 0 38.813 17.411 38.813 38.808-0.005 21.405-17.415 38.816-38.813 38.816v0zM97.984 257.746c0 9.225 7.503 16.733 16.729 16.733h794.385c9.225 0 16.729-7.509 16.729-16.733v-194.234l0.045-2.218c-1.091-8.176-8.107-14.496-16.573-14.496h-794.58c-9.225 0-16.729 7.498-16.729 16.72v194.228h-0.005zM97.984 557.824c0 9.225 7.503 16.729 16.729 16.729h794.385c9.225 0 16.729-7.509 16.729-16.729v-194.044l0.045-2.219c-1.091-8.182-8.107-14.514-16.573-14.514h-794.58c-9.225 0-16.729 7.509-16.729 16.733v194.044h-0.005zM925.865 661.635c-1.089-8.178-8.104-14.505-16.573-14.505h-794.579c-9.225 0-16.729 7.509-16.729 16.729v194.228c0 9.225 7.503 16.729 16.729 16.729h794.385c9.225 0 16.729-7.507 16.729-16.729v-194.228l0.038-2.224zM998.4 858.087c0 49.142-39.978 89.113-89.108 89.113h-794.579c-49.14 0-89.113-39.978-89.113-89.113v-194.228c0-19.17 6.195-37.67 17.596-52.924-11.396-15.268-17.596-33.827-17.596-53.111v-194.234c0-19.161 6.195-37.661 17.596-52.921-11.396-15.249-17.596-33.75-17.596-52.928v-194.234c0-49.136 39.978-89.107 89.113-89.107h794.385c49.139 0 89.111 39.972 89.111 89.107v194.234c0 19.189-6.204 37.705-17.62 52.964 11.415 15.409 17.62 33.905 17.62 52.885v194.234c0 19.181-6.204 37.696-17.62 52.96 11.415 15.404 17.62 33.899 17.62 52.886l0.19 194.417z" />
<glyph unicode="&#xe905;" glyph-name="branches" d="M450.735 428.683h324.087c14.841-53.739 63.947-93.207 122.277-93.207 70.087 0 126.901 56.955 126.901 127.213 0 70.259-56.813 127.213-126.901 127.213-57.814 0-106.566-38.771-121.876-91.784v1.1h-321.234l179.756 312.362h141.076c14.841-53.738 63.947-93.205 122.277-93.205 70.087 0 126.901 56.955 126.901 127.213s-56.813 127.213-126.901 127.213c-57.416 0-105.901-38.236-121.564-90.686h-183.753v-2.298l-219.025-380.599h-124.294c-15.661 52.45-64.147 90.684-121.564 90.684-70.087 0-126.901-56.953-126.901-127.213 0-70.258 56.813-127.213 126.901-127.213 58.332 0 107.438 39.467 122.279 93.207h120.326l223.133-387.737 0.402 0.231v-0.43h182.139c15.257-53.095 64.047-91.948 121.921-91.948 70.087 0 126.901 56.955 126.901 127.214s-56.813 127.213-126.901 127.213c-57.874 0-106.662-38.851-121.919-91.945h-141.788l-182.657 317.401z" />
<glyph unicode="&#xe906;" glyph-name="check" d="M390.986 6.34l633.014 828.040-110.546 80.881-530.663-684.558-279.55 307.919-103.241-93.827z" />
<glyph unicode="&#xe907;" glyph-name="drag" d="M307.2 204.8h409.6v102.4h-409.6v-102.4zM307.2 409.6h409.6v102.4h-409.6v-102.4zM307.2 614.4h409.6v102.4h-409.6v-102.4z" />
<glyph unicode="&#xe908;" glyph-name="pencil" d="M864 960c88.364 0 160-71.634 160-160 0-36.020-11.91-69.258-32-96l-64-64-224 224 64 64c26.742 20.090 59.978 32 96 32zM64 224l-64-288 288 64 592 592-224 224-592-592zM715.578 596.422l-448-448-55.156 55.156 448 448 55.156-55.156z" />
<glyph unicode="&#xe909;" glyph-name="logo" horiz-adv-x="3738" d="M304.066 972.799c36.294 0 66.322-3.024 90.086-9.073s43.855-12.53 60.273-19.443l-33.701-151.656c-13.826 6.049-29.164 10.37-46.015 12.962s-33.917 3.889-51.2 3.889c-23.332 0-42.991-3.24-58.977-9.722s-28.516-15.338-37.59-26.572c-9.073-11.234-15.554-24.628-19.443-40.182s-5.833-32.405-5.833-50.552v-33.701h238.501v-160.729h-238.501v-521.073h-193.134v718.096c0 88.142 24.844 158.136 74.532 209.985s123.355 77.772 221.003 77.772zM825.14-46.016c-56.169 0.864-101.752 6.913-136.749 18.147s-62.65 27.004-82.957 47.311c-20.307 20.307-34.133 44.935-41.479 73.884s-11.018 61.569-11.018 97.863v750.501l193.134 31.109v-742.724c0-17.283 1.296-32.837 3.889-46.663s7.561-25.492 14.906-34.997c7.345-9.506 17.931-17.283 31.757-23.332s32.405-9.938 55.737-11.666l-27.22-159.433zM1574.345 309.143c0-53.577-7.777-102.616-23.332-147.119s-38.022-82.525-67.402-114.066c-29.381-31.541-64.594-55.953-105.64-73.235s-87.061-25.924-138.046-25.924c-50.12 0-95.703 8.641-136.749 25.924s-76.26 41.694-105.64 73.235c-29.381 31.541-52.28 69.563-68.699 114.066s-24.628 93.542-24.628 147.119c0 53.577 8.425 102.4 25.276 146.471s40.182 81.661 69.995 112.77c29.813 31.109 65.242 55.305 106.289 72.587s85.765 25.924 134.157 25.924c49.256 0 94.407-8.641 135.453-25.924s76.26-41.478 105.64-72.587c29.381-31.109 52.28-68.699 68.699-112.77s24.628-92.894 24.628-146.471zM1377.322 309.143c0 59.626-11.882 106.504-35.646 140.638s-57.681 51.2-101.752 51.2c-44.071 0-78.204-17.066-102.4-51.2s-36.294-81.012-36.294-140.638c0-59.626 12.098-106.937 36.294-141.934s58.329-52.496 102.4-52.496c44.071 0 77.988 17.499 101.752 52.496s35.646 82.309 35.646 141.934zM2096.714 358.399c-17.283-65.675-35.645-130.916-55.089-195.727s-39.966-130.052-61.57-195.727h-150.36c-15.555 36.294-32.405 79.5-50.552 129.62s-36.942 104.776-56.385 163.97c-19.443 59.194-39.318 121.843-59.625 187.949s-39.966 132.86-58.977 200.263h203.504c6.913-31.109 14.474-65.026 22.684-101.752s16.851-74.531 25.924-113.418c9.073-38.886 18.579-77.988 28.516-117.306s20.091-77.124 30.461-113.418c11.234 38.022 22.251 76.908 33.053 116.658s21.171 78.852 31.109 117.306c9.938 38.454 19.443 75.612 28.516 111.473s17.067 69.347 23.98 100.456h139.99c6.913-31.109 14.69-64.594 23.332-100.456s17.715-73.019 27.22-111.473c9.505-38.454 19.443-77.556 29.813-117.306s21.171-78.636 32.405-116.658c10.37 36.294 20.739 74.099 31.109 113.418s20.091 78.42 29.165 117.306c9.073 38.886 17.715 76.692 25.924 113.418s15.77 70.643 22.684 101.752h200.911c-19.011-67.403-38.67-134.157-58.977-200.263s-40.182-128.756-59.625-187.949c-19.443-59.194-38.454-113.85-57.033-163.97s-35.645-93.326-51.2-129.62h-150.36c-21.603 65.675-42.775 130.916-63.514 195.727s-39.75 130.052-57.033 195.727zM2792.775 69.346c0-38.886-12.314-68.483-36.942-88.79s-52.496-30.461-83.605-30.461c-31.109 0-58.977 10.154-83.605 30.461s-36.942 49.904-36.942 88.79c0 38.886 12.314 68.483 36.942 88.79s52.496 30.461 83.605 30.461c31.109 0 58.977-10.153 83.605-30.461s36.942-49.904 36.942-88.79zM2863.605 307.847c0 49.256 7.993 95.703 23.98 139.342s39.102 81.661 69.347 114.066c30.245 32.405 66.97 58.113 110.177 77.124s92.462 28.516 147.767 28.516c36.294 0 69.563-3.24 99.808-9.721s59.625-15.77 88.142-27.868l-40.182-154.248c-18.147 6.913-38.022 12.962-59.625 18.147s-45.799 7.777-72.587 7.777c-57.033 0-99.591-17.715-127.676-53.144s-42.127-82.092-42.127-139.99c0-61.354 13.178-108.881 39.534-142.582s72.371-50.552 138.046-50.552c23.332 0 48.391 2.16 75.18 6.481s51.416 11.234 73.884 20.739l27.22-158.137c-22.468-9.506-50.552-17.715-84.253-24.628s-70.859-10.37-111.473-10.37c-62.218 0-115.794 9.289-160.729 27.868s-81.877 43.855-110.825 75.828c-28.949 31.973-50.12 69.779-63.514 113.418s-20.091 90.95-20.091 141.934zM3711.322-33.054h-193.134v681.803h193.134v-681.803zM3729.468 845.771c0-35.43-11.45-63.298-34.349-83.605s-49.904-30.461-81.013-30.461c-31.109 0-58.113 10.153-81.013 30.461s-34.349 48.175-34.349 83.605c0 35.43 11.45 63.298 34.349 83.605s49.904 30.461 81.013 30.461c31.109 0 58.113-10.153 81.013-30.461s34.349-48.175 34.349-83.605z" />
<glyph unicode="&#xe90a;" glyph-name="checkbox-indeterminate" d="M797.333 392v112h-570.667v-112h570.667zM909.333 960c61.333 0 114.667-53.333 114.667-114.667v-794.667c0-61.333-53.333-114.667-114.667-114.667h-794.667c-61.333 0-114.667 53.333-114.667 114.667v794.667c0 61.333 53.333 114.667 114.667 114.667h794.667z" />
<glyph unicode="&#xe90b;" glyph-name="settings" d="M937.365 505.728l85.846 80.853-135.68 234.88-139.606-41.984-66.816 38.571-33.536 141.952h-271.104l-27.136-114.688-100.096-57.771-112.896 33.92-135.594-234.88 85.76-80.853v-115.499l-85.76-80.853 135.594-234.837 112.896 33.877 100.096-57.728 27.136-114.688h271.104l27.136 114.688 100.096 57.728 112.768-33.877 135.68 234.88-85.846 80.853v115.456h-0.043zM915.563 293.589l-68.096-117.888-83.456 25.045-163.925-94.549-20.054-84.864h-136.064l-20.054 84.864-163.926 94.549-83.456-25.045-68.096 117.888 63.403 59.776v189.184l-63.403 59.776 68.096 117.931 83.456-25.088 163.926 94.592 20.054 84.864h136.064l26.454-112.085 130.645-75.392 110.294 33.152 68.096-117.888-63.488-59.776v-189.227l63.53-59.819zM511.979 661.333c-117.632 0-213.334-95.701-213.334-213.333s95.701-213.333 213.334-213.333c117.632 0 213.334 95.701 213.334 213.333s-95.701 213.333-213.334 213.333v0zM511.979 320c-70.57 0-128 57.429-128 128s57.43 128 128 128c70.57 0 128-57.429 128-128s-57.43-128-128-128v0z" />
<glyph unicode="&#xe90c;" glyph-name="logout" horiz-adv-x="870" d="M112.876 847.609v-773.619h480.898v-104.543h-585.441v982.705h585.441v-104.543h-480.898zM555.224 154.358l-73.834 73.834 180.337 180.337h-423.399v104.543h423.399l-180.337 180.337 73.834 73.834 306.442-306.442-306.442-306.442z" />
<glyph unicode="&#xe90d;" glyph-name="search" d="M1023.997 21.621l-72.82-72.82-271.305 271.305c-73.465-57.354-163.685-88.932-259.060-88.932-112.13 0-217.817 43.821-297.727 123.086-79.265 79.265-123.086 184.952-123.086 297.727s43.821 218.461 123.086 297.727c79.91 79.265 185.595 123.086 297.727 123.086 112.775 0 218.461-43.821 297.727-123.086 79.91-79.265 123.731-184.952 123.731-297.727 0-95.375-32.222-185.595-89.575-259.060l271.305-271.305zM195.261 327.081c60.577-60.577 140.485-93.443 225.551-93.443s164.974 32.866 225.551 93.443c59.932 59.932 92.798 139.841 92.798 224.906s-32.866 164.974-92.798 225.551c-60.577 59.932-140.485 92.798-225.551 92.798s-164.974-32.866-224.906-92.798c-60.577-60.577-93.443-140.485-93.443-225.551s32.866-164.974 92.798-224.906z" />
<glyph unicode="&#xe90e;" glyph-name="equalizer" d="M542.387 403.632c19.556 11.15 33.362 31.73 33.362 56.199s-13.806 45.044-33.362 56.194c-9.162 5.227-19.171 9.004-30.385 9.004s-21.228-3.777-30.394-9.004c-19.551-11.15-33.353-31.726-33.353-56.194s13.802-45.049 33.353-56.199c9.166-5.227 19.18-9 30.394-9s21.223 3.772 30.385 9zM542.387 582.906c53.947-13.967 94.137-63.618 94.137-123.075 0-59.461-40.19-109.117-94.137-123.084v-356.866c0-17.174-13.593-31.077-30.385-31.077-16.801 0-30.394 13.903-30.394 31.077v356.866c-53.938 13.967-94.137 63.623-94.137 123.084 0 59.457 40.199 109.108 94.137 123.075v358.812c0 17.179 13.593 31.082 30.394 31.082 16.792 0 30.385-13.903 30.385-31.082v-358.812zM929.862 798.568c53.938-13.972 94.137-63.618 94.137-123.080s-40.199-109.112-94.137-123.080v-572.531c0-17.174-13.589-31.077-30.39-31.077-16.797 0-30.39 13.903-30.39 31.077v572.531c-53.942 13.967-94.133 63.618-94.133 123.080 0 59.457 40.19 109.108 94.133 123.080v143.15c0 17.179 13.593 31.082 30.39 31.082 16.801 0 30.39-13.903 30.39-31.082v-143.15zM929.862 619.294c19.551 11.15 33.353 31.73 33.353 56.194 0 24.469-13.802 45.049-33.353 56.194-9.162 5.232-19.175 9.004-30.39 9.004-11.219 0-21.223-3.772-30.39-9.004-19.551-11.145-33.358-31.726-33.358-56.194 0-24.464 13.806-45.044 33.358-56.194 9.166-5.227 19.171-9 30.39-9 11.214 0 21.223 3.772 30.39 9zM154.916 367.249c53.947-13.972 94.137-63.623 94.137-123.080s-40.19-109.112-94.137-123.084v-141.204c0-17.174-13.593-31.077-30.385-31.077-16.801 0-30.394 13.903-30.394 31.077v141.204c-53.942 13.972-94.137 63.628-94.137 123.084s40.195 109.108 94.137 123.080v574.468c0 17.179 13.593 31.082 30.394 31.082 16.792 0 30.385-13.903 30.385-31.082v-574.468zM154.916 187.975c19.551 11.15 33.362 31.726 33.362 56.194s-13.811 45.044-33.362 56.199c-9.162 5.227-19.171 9-30.385 9-11.219 0-21.228-3.772-30.394-9-19.551-11.155-33.358-31.73-33.358-56.199s13.806-45.044 33.358-56.194c9.166-5.227 19.175-9 30.394-9 11.214 0 21.223 3.772 30.385 9z" />
<glyph unicode="&#xe90f;" glyph-name="git-pull-request" horiz-adv-x="768" d="M704 238.080v401.92c-1.92 49.92-21.76 94.080-60.16 131.84s-81.92 58.24-131.84 60.16h-64v128l-192-192 192-192v128h64c17.28-1.28 30.72-7.040 44.16-19.84s19.2-26.88 19.84-44.16v-401.92c-38.459-22.45-63.889-63.519-63.889-110.528 0-70.445 57.107-127.552 127.552-127.552 0.119 0 0.237 0 0.355 0h-0.018c0.1 0 0.219 0 0.337 0 70.445 0 127.552 57.107 127.552 127.552 0 47.009-25.43 88.079-63.285 110.202l-0.604 0.326zM640 51.2c-42.24 0-76.8 35.2-76.8 76.8s35.2 76.8 76.8 76.8c41.6 0 76.8-35.2 76.8-76.8s-35.2-76.8-76.8-76.8zM256 768c0 71.040-56.96 128-128 128-0.1 0-0.219 0-0.337 0-70.445 0-127.552-57.107-127.552-127.552 0-47.009 25.43-88.079 63.285-110.202l0.604-0.326v-419.84c-38.459-22.45-63.889-63.519-63.889-110.528 0-70.445 57.107-127.552 127.552-127.552 0.119 0 0.237 0 0.355 0h-0.018c0.1 0 0.219 0 0.337 0 70.445 0 127.552 57.107 127.552 127.552 0 47.009-25.43 88.079-63.285 110.202l-0.604 0.326v419.84c37.76 21.76 64 62.72 64 110.080zM204.8 128c0-42.24-35.2-76.8-76.8-76.8s-76.8 35.2-76.8 76.8c0 41.6 35.2 76.8 76.8 76.8s76.8-35.2 76.8-76.8zM128 691.2c-42.24 0-76.8 35.2-76.8 76.8s35.2 76.8 76.8 76.8c41.6 0 76.8-35.2 76.8-76.8s-35.2-76.8-76.8-76.8z" />
<glyph unicode="&#xe910;" glyph-name="layergroup" horiz-adv-x="1075" d="M537.5 51.63l-453.201 289.963-84.304-48.864 537.505-343.123 537.505 343.123-83.767 48.864-453.738-289.963zM537.5 235.274l-453.201 289.963-84.304-48.864 537.505-343.123 537.505 343.123-83.767 48.864-453.738-289.963zM537.5 317.429l537.505 343.123-537.505 311.442-537.505-311.442 537.505-343.123zM165.381 656.794l372.119 216.398 372.119-216.398-372.119-237.34-372.119 237.34z" />
<glyph unicode="&#xe911;" glyph-name="off" horiz-adv-x="1518" d="M120.667 460.089c0 77.968 21.869 141.437 65.609 190.406 45.167 51.346 106.257 77.017 183.277 77.017 77.495 0 138.822-25.438 183.988-76.306 43.74-48.97 65.609-112.675 65.609-191.122 0-77.968-21.869-141.437-65.609-190.406-45.64-50.394-106.973-75.592-183.988-75.592s-138.11 25.438-183.277 76.306c-43.74 48.491-65.609 111.721-65.609 189.695zM246.18 458.662c0-42.789 9.748-78.207 29.238-106.257 21.869-32.804 53.247-49.206 94.137-49.206s72.502 16.163 94.846 48.491c19.492 28.525 29.238 64.184 29.238 106.973 0 44.213-9.27 80.584-27.811 109.109-22.344 33.755-54.435 50.632-96.27 50.632s-73.691-16.877-95.561-50.632c-18.541-28.525-27.811-64.894-27.811-109.109zM929.007 721.095c56.097 0 84.15-18.541 84.15-55.624 0-36.604-28.053-54.909-84.15-54.909h-96.987v-92.707h83.435c56.097 0 84.15-18.303 84.15-54.909s-28.053-54.909-84.15-54.909h-83.435v-129.79c0-56.097-19.726-84.15-59.191-84.15s-59.191 28.053-59.191 84.15v359.422c0 30.904 5.945 52.536 17.83 64.895s33.283 18.541 64.184 18.541h133.356zM1313.028 721.095c56.097 0 84.15-18.541 84.15-55.624 0-36.604-28.053-54.909-84.15-54.909h-96.987v-92.707h83.435c56.097 0 84.15-18.303 84.15-54.909s-28.053-54.909-84.15-54.909h-83.435v-129.79c0-56.097-19.726-84.15-59.191-84.15s-59.191 28.053-59.191 84.15v359.422c0 30.904 5.945 52.536 17.829 64.895s33.283 18.541 64.184 18.541h133.356z" />
<glyph unicode="&#xe912;" glyph-name="search2" d="M599.877 257.157c163.124 0 294.677 131.552 294.677 294.677s-131.552 294.677-294.677 294.677c-163.124 0-294.677-131.552-294.677-294.677s131.552-294.677 294.677-294.677zM599.877 972.8c232.584 0 420.966-188.382 420.966-420.966s-188.382-420.966-420.966-420.966c-62.093 0-122.080 13.682-174.701 37.887l-253.633-186.278c-44.201-33.677-107.346-24.205-141.024 21.048-27.362 36.834-26.311 85.245 0 121.028l186.278 252.58c-24.205 52.62-37.887 112.609-37.887 174.701 0 232.584 188.382 420.966 420.966 420.966z" />
<glyph unicode="&#xe913;" glyph-name="code" horiz-adv-x="1288" d="M898.601 707.147l57.185 56.872 302.69-300.982-307.192-305.446-57.185 56.859 250.009 248.587-245.506 244.11zM29.727 458.558l307.178 305.459 57.197-56.872-250.009-248.587 245.519-244.11-57.197-56.859-302.69 300.967zM757.51 921.404l76.633-25.612-303.468-895.595-76.633 25.612 303.468 895.595z" />
<glyph unicode="&#xe914;" glyph-name="plus-sm" d="M425.747 547.052h-287.509v-172.506h287.509v-287.509h172.506v287.509h287.509v172.506h-287.509v287.509h-172.506v-287.509z" />
<glyph unicode="&#xe915;" glyph-name="question-thin" d="M512 972.799c282.122 0 511.999-229.877 511.999-511.999 0-136.489-53.551-265.143-150.203-361.796s-225.306-150.204-361.796-150.204c-282.122 0-511.999 229.877-511.999 511.999 0 136.489 53.551 265.143 150.203 361.796s224.654 150.204 361.796 150.204zM838.217 134.583c87.040 87.040 134.583 203.336 134.583 326.217 0 254.537-206.263 460.799-460.799 460.799-122.88 0-239.177-47.543-326.217-134.583s-134.583-203.336-134.583-326.217c0-254.537 206.263-460.799 460.799-460.799 123.611 0 239.177 47.543 326.217 134.583zM459.755 199.576v104.49h104.49v-104.49h-104.49zM522.449 742.922c96 0 167.184-62.693 167.184-146.286 0-108.408-125.388-133.877-125.388-208.979v-20.898h-104.49v33.959c0 109.714 116.898 129.306 124.735 191.347 4.571 41.143-20.245 67.265-62.041 67.265s-62.693-41.796-62.693-83.591h-104.49c0 104.49 72.49 167.184 167.183 167.184z" />
<glyph unicode="&#xe916;" glyph-name="warning" d="M512-51.2c282.122 0 512 229.878 512 512 0 136.49-53.551 265.143-150.204 361.796s-225.306 150.204-361.796 150.204c-282.122 0-512-229.878-512-512 0-136.49 53.551-265.143 150.204-361.796s224.653-150.204 361.796-150.204zM803.265 752.065c77.714-77.714 120.163-181.551 120.163-291.265 0-227.265-184.163-411.429-411.429-411.429-109.714 0-213.551 42.449-291.265 120.163s-120.163 181.551-120.163 291.265c0 227.265 184.163 411.429 411.429 411.429 110.367 0 213.551-42.449 291.265-120.163zM443.22 665.347c15.398-107.023 46.385-298.587 46.385-298.587h45.109c0 0 38.307 186.306 51.94 298.587s-158.832 107.023-143.434 0zM512 317.44c-33.932 0-61.44-27.508-61.44-61.44s27.508-61.44 61.44-61.44c33.932 0 61.44 27.508 61.44 61.44s-27.508 61.44-61.44 61.44z" />
<glyph unicode="&#xe917;" glyph-name="bookmark" horiz-adv-x="1021" d="M995.652 608.711l-202.38-450.777h-151.785v-209.134l-193.581 121.363-193.581-121.363v209.134h-74.793c-102.29 0-153.985 65.558-153.985 196.673 0 39.009 3.85 81.812 18.698 116.487 78.092 183.128 139.686 299.615 200.73 389.553 50.595 74.226 93.491 112.152 189.182 112.152h553.796l-250.226-502.789h-558.195c-26.397 0-65.994 0-65.994-114.32 0-111.069 37.946-111.069 65.994-111.069h74.793v121.363h87.991v-258.98l105.59 66.099 105.59-66.099v258.98h87.991v-121.363h94.041l163.884 364.089h96.241zM318.118 813.511c-42.896-63.39-91.291-152.787-140.236-256.813h504.851l163.884 329.414h-412.46c-58.294 0-75.893-14.087-116.039-72.601z" />
<glyph unicode="&#xe918;" glyph-name="jigsaw" d="M85.451 169.258v-107.697c0-7.754 2.31-13.179 7.961-18.715 5.908-5.776 11.872-8.235 19.943-8.235h527.604c7.952 0 13.455 2.273 19.014 7.846 5.55 5.582 7.814 11.109 7.814 19.103v227.121l70.405-60.101c10.786-9.196 23.33-16.793 37.301-22.569 13.096-5.416 26.855-8.059 42.050-8.059 16.419 0 31.567 3.087 46.311 9.427 15.066 6.488 27.84 15.12 39.049 26.377 11.283 11.321 19.897 24.057 26.377 38.936 6.24 14.371 9.268 29.667 9.268 46.792 0 16.488-3.074 31.709-9.378 46.496-6.461 15.138-15.057 27.966-26.266 39.223s-23.984 19.889-39.059 26.377c-14.734 6.331-29.883 9.418-46.302 9.418-15.195 0-28.963-2.634-42.068-8.050-13.952-5.776-26.496-13.364-37.282-22.569l-70.405-60.082v235.707c0 8.105-2.448 14.094-8.209 20.027-5.504 5.675-10.906 7.994-18.627 7.994h-194.308l60.152 70.756c18.314 21.552 27.223 46.542 27.223 76.385 0 17.818-3.194 33.798-9.774 48.862-6.829 15.637-15.636 28.752-26.938 40.092-11.292 11.34-24.352 20.194-39.924 27.051-15.001 6.608-30.564 9.824-47.581 9.824s-32.58-3.216-47.581-9.824c-15.572-6.858-28.631-15.702-39.933-27.051-11.292-11.34-20.1-24.454-26.929-40.092-6.58-15.064-9.783-31.044-9.783-48.862 0-14.843 2.384-28.225 7.28-40.896 5.172-13.401 12.176-25.693 20.818-36.543l55.532-69.703h-255.85c-7.952 0-13.621-2.44-19.548-8.392-5.936-5.961-8.357-11.645-8.357-19.63v-105.645c2.917 1.386 5.853 2.828 8.798 4.307 4.215 2.116 8.946 4.085 14.403 5.98 22.658 9.741 46.2 14.667 69.982 14.667 24.959 0 48.777-4.769 70.782-14.168 21.738-9.297 41.037-22.31 57.355-38.696s29.276-35.766 38.534-57.605c9.36-22.088 14.118-46.006 14.118-71.061 0-25.184-4.795-49.019-14.247-70.849-9.249-21.358-22.171-40.452-38.405-56.755-16.308-16.377-35.607-29.408-57.364-38.696-22.014-9.408-45.823-14.177-70.773-14.177-24.287 0-48.262 5.49-71.344 16.331-6.544 1.941-13.602 5.065-21.839 9.621zM640.96-51.2h-527.604c-30.269 0-57.787 11.266-79.581 32.596-22.097 21.626-33.776 49.343-33.776 80.165v124.323l1.16 4.898c5.881 24.796 17.578 44.103 34.779 57.383 11.182 8.641 24.748 13.198 39.233 13.198 15.581 0 31.687-5.111 49.21-15.637 3.516-2.043 5.651-3.096 6.709-3.567l4.197-0.702 5.743-2.893c12.654-6.349 24.95-9.436 37.604-9.436 13.584 0 25.788 2.384 37.328 7.32 11.789 5.037 21.729 11.71 30.38 20.415 8.752 8.78 15.443 18.687 20.468 30.286 4.813 11.137 7.16 23.114 7.16 36.635 0 13.632-2.384 25.887-7.298 37.458-5.016 11.857-11.661 21.839-20.321 30.526-8.66 8.706-18.6 15.379-30.398 20.415-11.522 4.926-23.726 7.32-37.319 7.32-12.673 0-24.895-2.671-37.365-8.188l-1.813-0.804-1.877-0.619c-3.387-1.137-4.841-1.839-5.099-1.969-9.212-4.63-18.37-8.937-27.232-12.8-15.075-6.571-29.855-9.14-43.706-7.588-18.95 2.107-35.598 12.606-46.872 29.574-8.863 13.355-13.51 30.517-14.615 54.010l-0.055 2.043v112.844c0 30.6 11.55 58.381 33.38 80.303 21.849 21.931 49.504 33.53 79.976 33.53h96.091c-6.194 19.39-9.323 39.972-9.323 61.33 0 29.51 5.715 57.54 16.98 83.335 11.016 25.231 26.082 47.541 44.765 66.302 18.692 18.761 40.899 33.89 66.024 44.953 25.677 11.312 53.232 17.042 81.909 17.042 28.668 0 56.223-5.73 81.909-17.042 25.125-11.072 47.332-26.192 66.015-44.953 18.692-18.761 33.748-41.081 44.774-66.311 11.256-25.785 16.971-53.816 16.971-83.326 0-21.571-2.936-42.042-8.771-61.33h30.251c30.693 0 58.303-11.728 79.829-33.918 21.241-21.894 32.469-49.528 32.469-79.915v-69.795c20.339 7.042 41.912 10.601 64.294 10.601 27.831 0 54.741-5.508 79.967-16.368 24.895-10.711 47.047-25.702 65.822-44.555s33.702-41.099 44.378-66.098c10.814-25.341 16.29-52.365 16.29-80.303 0-28.761-5.513-56.062-16.409-81.107-10.667-24.556-25.557-46.533-44.258-65.304-18.775-18.844-40.918-33.844-65.822-44.555-25.235-10.869-52.146-16.377-79.967-16.377-22.382 0-43.955 3.567-64.294 10.619v-61.2c0-30.609-11.357-58.187-32.837-79.767-21.499-21.589-48.971-32.994-79.452-32.994z" />
<glyph unicode="&#xe919;" glyph-name="notification" horiz-adv-x="1018" d="M992.655 269.372v-101.143h-967.111v101.714l15.111 13.714c1.679 1.143 186.37 173.143 203.72 422.857l14.551 200.571 20.148 12c3.358 2.286 91.226 53.714 227.786 53.714h6.716c136.56 0 224.428-51.429 228.346-53.714l20.148-12 14.551-200.571c17.909-250.286 199.802-421.714 201.481-423.429l14.551-13.714zM142.515 259.658h733.728c-62.683 72.571-174.058 230.286-189.169 440.571l-10.634 151.429c-28.543 12-86.189 31.429-162.864 31.429h-6.716c-76.115 0-133.761-19.429-162.305-31.429l-10.634-151.429c-15.111-210.286-127.605-367.429-191.407-440.571zM509.1 38.515c-37.498 0-69.399 23.429-82.831 56.571h-92.905c16.23-84 88.428-146.286 175.737-146.286s159.506 62.286 175.737 146.286h-92.905c-13.432-33.143-45.333-56.571-82.831-56.571z" />
<glyph unicode="&#xe91a;" glyph-name="users" horiz-adv-x="1408" d="M1402.771 9.079c-17.18 173.395-161.341 273.116-399.618 273.116-39.588 0-76.189-2.977-110.549-8.186 23.155-33.488 40.335-70.698 51.54-110.884 17.927 1.488 38.094 2.233 59.009 2.233 177.027 0 274.877-55.814 285.335-164.465l4.482-52.093h115.030l-5.229 60.279zM440.7 377.451c351.066 0 426.508-180.837 436.966-288.744l4.482-139.907h-115.777l-2.988 131.721c-11.951 119.070-126.981 180.093-322.682 180.093-196.448 0-311.478-61.023-323.429-181.581l-3.735-130.233h-113.536l2.988 139.163c10.457 108.651 85.899 289.488 437.712 289.488zM1001.659 353.637c-135.945 0-239.024 116.093-239.024 269.395 0 136.186 98.597 230.698 239.024 230.698s239.024-94.512 239.024-230.698c0-153.302-103.079-269.395-239.024-269.395zM1001.659 739.87c-29.131 0-124.741-8.186-124.741-116.093 0-90.791 53.033-156.279 124.741-156.279s124.741 65.488 124.741 156.279c0 107.907-95.61 116.093-124.741 116.093zM439.953 448.893c-143.414 0-250.975 121.302-250.975 282.791 0 144.372 100.838 241.116 250.975 241.116s250.975-96.744 250.975-241.116c0-161.488-108.308-282.791-250.975-282.791zM439.953 859.684c-50.793 0-136.692-16.372-136.692-127.256 0-98.977 57.515-170.419 136.692-170.419s136.692 71.442 136.692 170.419c0 110.884-85.899 127.256-136.692 127.256z" />
<glyph unicode="&#xe91b;" glyph-name="timeout" d="M512 972.799c-283.034 0-511.999-230.393-511.999-511.999 0-282.749 229.109-511.999 511.999-511.999 115.126 0 221.691 38.945 307.143 102.428v139.234c-75.324-85.025-184.885-139.234-307.143-139.234-108.706 0-212.704 43.083-289.596 119.975-76.75 76.892-119.975 181.033-119.975 289.596 0 226.256 183.458 409.571 409.571 409.571 172.046 0 318.983-105.995 379.328-255.928h108.991c-64.91 207.853-257.926 358.357-488.318 358.357zM460.786 716.871v-307.143l268.767-161.204 38.375 62.912-230.393 136.666v268.767h-76.75zM921.571 512.014v-358.357h102.428v358.357h-102.428zM921.571 51.372v-102.428h102.428v102.428h-102.428z" />
<glyph unicode="&#xe91c;" glyph-name="social-github" d="M690.103 364.033c19.675 0 35.986-9.729 50.175-28.964 14.043-19.383 21.504-43.008 21.504-71.314 0-28.16-7.461-52.004-21.504-71.168-14.117-19.383-30.5-28.964-50.175-28.964-20.333 0-38.18 9.581-52.297 28.964-14.043 19.164-21.504 43.008-21.504 71.168 0 28.306 7.461 51.931 21.504 71.314 14.043 19.31 31.891 28.964 52.297 28.964zM941.715 624.348c54.564-59.319 82.285-131.291 82.285-215.99 0-54.711-6.29-104.082-18.944-147.968-12.801-43.666-28.819-79.287-47.835-106.716-19.31-27.502-43.008-51.565-71.24-72.337-28.232-20.919-54.199-35.986-77.897-45.567-23.772-9.655-50.833-17.042-81.262-22.382-30.5-5.193-53.101-8.119-68.974-8.997-15.579-0.658-32.036-1.023-50.103-1.023-4.023 0-17.774-0.293-40.010-1.097-22.016-0.951-40.959-1.171-55.735-1.171s-33.718 0.219-55.735 1.171c-22.236 0.804-35.986 1.097-40.010 1.097-17.993 0-34.524 0.365-50.103 1.023-15.945 0.878-38.474 3.804-68.974 8.997-30.939 5.266-57.49 12.727-81.262 22.382-23.698 9.581-49.736 24.65-77.823 45.567-28.306 20.772-52.004 44.837-71.314 72.337-19.090 27.428-35.035 63.049-47.835 106.716-12.653 43.886-18.944 93.257-18.944 147.968 0 84.699 27.722 156.745 82.285 215.99-5.998 2.998-6.218 32.695-0.585 89.014 4.608 56.393 16.603 108.397 36.206 155.939 68.316-7.241 152.867-46.006 253.878-115.638 34.085 8.703 80.53 13.385 140.214 13.385 62.317 0 109.056-4.682 140.288-13.459 46.006 31.085 89.965 56.393 132.022 75.629 42.715 19.090 73.508 30.427 92.818 33.427l28.964 6.583c19.748-47.47 31.743-99.474 36.279-155.939 5.559-56.247 5.34-85.942-0.658-88.942zM514.196 52.374c123.464 0 216.062 14.775 279.477 44.398 62.537 29.549 94.5 90.55 94.5 182.564 0 53.395-19.968 98.010-60.123 133.705-20.333 19.236-44.837 31.085-72.337 35.547-27.428 4.462-69.413 4.462-125.806 0-56.247-4.534-94.938-6.583-115.712-6.583-28.16 0-58.513 1.317-96.474 4.315-38.035 2.926-67.877 4.754-89.453 5.705-21.504 0.658-44.544-1.975-70.071-7.899-25.234-5.998-46.006-16.383-62.391-31.085-38.107-34.304-57.783-78.775-57.783-133.705 0-92.014 31.159-153.015 93.622-182.564 62.172-29.623 154.551-44.398 278.088-44.398h4.462zM336.167 364.033c19.603 0 35.986-9.729 50.103-28.964 14.043-19.383 21.504-43.008 21.504-71.314 0-28.16-7.461-52.004-21.504-71.168-14.043-19.383-30.5-28.964-50.103-28.964-20.407 0-38.18 9.581-52.369 28.964-14.043 19.164-21.504 43.008-21.504 71.168 0 28.306 7.461 51.931 21.504 71.314 14.117 19.31 31.891 28.964 52.369 28.964z" />
<glyph unicode="&#xe91d;" glyph-name="trash" d="M931 786.691h-46.555v-744.892c0-51.397-41.714-93.112-93.112-93.112h-558.669c-51.397 0-93.112 41.714-93.112 93.112v744.892h-46.555c-25.699 0-46.555 20.811-46.555 46.555s20.857 46.555 46.555 46.555h279.335c0 51.397 41.714 93.112 93.112 93.112h93.112c51.397 0 93.112-41.714 93.112-93.112h279.335c25.746 0 46.555-20.811 46.555-46.555s-20.811-46.555-46.555-46.555zM791.333 786.691h-558.669v-744.892h558.669v744.892zM418.886 693.579c25.699 0 46.555-20.811 46.555-46.555v-465.558c0-25.746-20.857-46.555-46.555-46.555s-46.555 20.811-46.555 46.555v465.558c0 25.746 20.857 46.555 46.555 46.555zM605.11 693.579c25.746 0 46.555-20.811 46.555-46.555v-465.558c0-25.746-20.811-46.555-46.555-46.555s-46.555 20.811-46.555 46.555v465.558c0 25.746 20.811 46.555 46.555 46.555z" />
<glyph unicode="&#xe91e;" glyph-name="question" d="M512 972.799c282.122 0 511.999-229.877 511.999-511.999 0-136.49-53.551-265.143-150.204-361.795s-225.306-150.204-361.796-150.204c-282.122 0-511.999 229.877-511.999 511.999 0 136.49 53.551 265.143 150.204 361.795s224.653 150.204 361.796 150.204zM803.265 169.535c77.714 77.714 120.163 181.551 120.163 291.265 0 227.266-184.164 411.428-411.428 411.428-109.714 0-213.551-42.449-291.265-120.163s-120.163-181.551-120.163-291.265c0-227.266 184.164-411.428 411.428-411.428 110.368 0 213.551 42.449 291.265 120.163zM459.755 199.576v104.49h104.49v-104.49h-104.49zM522.449 742.922c96 0 167.183-62.694 167.183-146.285 0-108.408-125.388-133.878-125.388-208.979v-20.898h-104.49v33.959c0 109.714 116.898 129.306 124.735 191.347 4.571 41.143-20.245 67.265-62.041 67.265s-62.694-41.796-62.694-83.592h-104.49c0 104.49 72.489 167.183 167.183 167.183z" />
<glyph unicode="&#xe91f;" glyph-name="message" d="M921.6 665.6v-358.4c0-56.32-46.080-102.4-102.4-102.4h-204.8v-153.6l-204.8 153.6h-204.8c-56.371 0-102.4 46.080-102.4 102.4v358.4c0 56.32 46.029 102.4 102.4 102.4h614.4c56.32 0 102.4-46.080 102.4-102.4z" />
<glyph unicode="&#xe920;" glyph-name="download" d="M665.6 563.2v307.2h-307.2v-307.2h-256l409.6-409.6 409.6 409.6h-256zM0 51.2h1024v-102.4h-1024v102.4z" />
<glyph unicode="&#xe921;" glyph-name="go" d="M578.432 696.491c-9.429 11.989-24.619 20.181-36.992 23.723 0.811 3.456-0.299 6.741-0.725 10.624-0.555 4.949-7.381 18.048-31.787 17.195-22.528-0.725-35.157-2.304-45.141-18.347-3.2-5.163-3.84-9.045-2.816-12.203-8.405-3.541-26.667-12.331-32-24.149-6.315-13.995-3.371-28.928 7.125-36.309 9.899-6.955 18.688-6.741 28.971-5.205-2.144-9.36-3.372-20.109-3.372-31.144 0-0.256 0.001-0.512 0.002-0.767v0.040c0-13.269 2.304-21.675 7.296-26.496 3.2-3.115 7.509-4.693 12.843-4.693h0.939c0.077-0.001 0.167-0.001 0.258-0.001 9.738 0 18.356 4.798 23.618 12.159l0.060 0.088c4.117-7.341 11.85-12.22 20.722-12.22 0.32 0 0.638 0.006 0.955 0.019l-0.046-0.001c14.933 0 23.125 9.045 23.125 25.515 0 2.645-1.408 25.984-2.56 35.712 1.792-0.171 3.627-0.299 5.504-0.299 0.157-0.002 0.342-0.004 0.528-0.004 7.465 0 14.432 2.13 20.327 5.815l-0.161-0.094c5.221 3.446 8.861 8.924 9.799 15.282l0.015 0.121c0.306 1.672 0.481 3.597 0.481 5.562 0 7.614-2.624 14.615-7.017 20.148l0.051-0.067zM482.517 594.859c-4.096-0.171-7.168 0.853-9.387 2.944-3.669 3.541-5.419 10.795-5.419 22.187 0 16.341 2.688 28.587 3.797 32.939 5.504 1.024 10.411 2.816 15.104 4.608 6.315 2.347 12.288 4.565 18.987 4.608-0.555-6.699-1.664-24.021-1.664-53.504-0.768-2.219-5.504-13.227-21.419-13.781zM545.493 614.315c0-13.141-5.589-19.499-17.109-19.499-0.227-0.010-0.493-0.016-0.76-0.016-8.598 0-15.791 6.012-17.606 14.061l-0.023 0.121c0 28.757 1.109 46.037 1.664 52.651 5.76-0.981 11.093-3.328 16.299-5.547 5.035-2.176 9.771-4.224 14.72-5.163h0.171c0.64-5.504 2.645-29.867 2.645-36.608zM579.072 671.915c-0.653-4.746-3.267-8.779-6.984-11.313l-0.056-0.036c-7.936-4.864-16.128-5.931-28.331-3.712-4.309 0.768-8.704 2.688-13.397 4.736-7.083 3.029-15.061 6.528-24.235 6.613-8.021 0-14.933-2.56-21.589-5.035-4.217-1.802-9.188-3.349-14.341-4.394l-0.507-0.086c-13.44-2.304-20.907-3.2-30.123 3.285-6.827 4.821-10.795 16.299-5.12 28.885 4.693 10.411 23.125 18.731 30.123 21.589 3.285-2.773 8.149-4.907 13.269-7.083 12.629-5.291 28.459-9.088 48 0.853 6.315 3.2 10.24 6.016 12.587 8.576 11.307-2.901 26.368-10.667 35.328-22.016 3.573-4.496 5.732-10.255 5.732-16.519 0-1.535-0.13-3.039-0.379-4.503l0.022 0.157zM380.032 709.291c-54.187 0-98.261 42.496-98.261 94.763 0 51.243 45.312 94.507 98.901 94.507 55.253 0 96.939-40.448 96.939-94.080 0.043-54.272-41.941-95.189-97.579-95.189zM380.672 892.501c-50.347 0-92.885-40.533-92.885-88.491 0-48.939 41.387-88.747 92.245-88.747 52.224 0 91.563 38.315 91.563 89.173 0.043 50.219-39.040 88.064-90.923 88.064zM331.776 829.099c-19.541 0-34.219-10.539-34.219-30.848s16-30.251 31.061-30.251c13.141 0 33.28 9.771 33.28 30.251 0.003 0.165 0.005 0.36 0.005 0.555 0 16.672-13.469 30.199-30.119 30.293h-0.009zM346.539 781.269c-3.541 0-9.472 0.853-9.472 8.533 0 7.723 7.040 8.747 9.301 8.747 4.992 0 8.149-3.285 8.149-8.235s-4.437-9.045-7.979-9.045zM619.179 718.848c-54.613 0-97.408 41.685-97.408 94.891 0 51.413 44.587 94.891 97.408 94.891 47.915 0 98.816-33.195 98.816-94.763 0-55.979-40.619-95.019-98.816-95.019zM619.179 902.571c-49.536 0-91.392-40.704-91.392-88.875 0-50.688 39.296-88.875 91.392-88.875 54.656 0 92.843 36.608 92.843 89.003 0 57.643-47.872 88.747-92.843 88.747zM571.221 838.272c-18.261 0-33.152-10.027-33.152-30.891 0-21.973 17.195-31.104 31.701-31.104 16.896 0 31.744 13.611 31.744 29.568 0.011 0.311 0.017 0.676 0.017 1.043 0 16.959-13.444 30.778-30.256 31.382l-0.055 0.002zM585.899 789.035c-5.205 0-8.405 4.48-8.405 9.131s4.267 9.131 8.405 9.131c4.651 0 8.747-4.309 8.747-8.96 0.043-4.651-3.541-9.301-8.747-9.301zM875.904 448.768c-11.051 8.32-39.552 15.616-47.019 16.512-1.222 0.17-2.633 0.267-4.067 0.267-1.182 0-2.349-0.066-3.498-0.194l0.141 0.013c-0.905 25.785-1.421 56.086-1.421 86.507 0 14.244 0.113 28.462 0.338 42.652l-0.027-2.141c0.128 11.691 0.213 22.528 0.213 32.64 0 39.040-3.328 97.195-18.987 153.984 12.587 5.461 50.603 25.6 50.603 67.371 0 6.869-1.365 41.941-29.056 59.605-40.875 26.155-84.139 3.755-95.531-3.115-45.099 37.333-111.744 57.131-193.621 57.131-102.059 0-192-20.309-246.699-55.723-6.398-4.269-11.98-8.862-17.066-13.951l-0.001-0.001c-10.453 6.315-45.909 24.149-86.187 4.779-15.953-7.4-28.081-20.779-33.66-37.186l-0.132-0.446c-7.979-23.339-2.347-47.104 1.579-54.955 13.909-27.648 40.789-36.907 50.859-39.467-9.899-44.544-13.44-98.859-13.44-124.8 0-40.021 4.267-73.173 8.363-105.259 3.413-26.667 6.613-52.096 6.784-78.293-1.119 0.054-2.43 0.085-3.748 0.085-1.864 0-3.713-0.062-5.546-0.184l0.249 0.013c-7.253-0.427-38.229-8.021-53.76-21.717-4.558-4.33-7.401-10.428-7.424-17.19v-0.004c0-6.059 3.755-13.611 7.851-16.299 2.517-7.040 8.064-15.104 14.976-17.195 1.734-0.569 3.729-0.897 5.801-0.897 0.076 0 0.151 0 0.227 0.001h-0.011c10.155 0 20.267 6.4 22.485 7.936 3.456 2.347 11.264 8.149 16.939 12.501-2.42-49.425-3.798-107.34-3.798-165.578 0-0.889 0-1.777 0.001-2.665v0.137-23.040c-0.043-27.563-0.085-58.88 1.579-76.501 3.157-33.493 36.053-87.595 68.011-112.981-7.339-3.925-20.011-11.392-28.373-19.84-12.715-12.843-17.237-26.027-17.237-34.091 0-8.704 6.059-19.413 14.848-21.76 6.571-7.637 13.952-9.259 22.955-9.301 0.427-0.043 1.28-0.128 2.432-0.128 0.002 0 0.004 0 0.006 0 4.602 0 8.935 1.153 12.725 3.185l-0.144-0.071c4.139 2.261 12.16 9.643 19.925 16.725 5.376 4.907 10.496 9.6 12.971 11.349 6.229 4.352 15.232 8.917 21.333 9.259 2.073 0.012 4.037 0.467 5.806 1.274l-0.089-0.036c32.853-15.232 79.232-27.563 152.576-27.563 83.029 0 150.485 7.979 211.157 41.728 2.731-1.237 7.168-3.243 12.203-5.888 10.581-5.461 26.581-26.837 30.208-32.896 4.267-7.083 14.464-12.629 23.211-12.629 8.619 0 13.483 1.963 18.859 7.637l2.176 0.768c4.309 1.408 7.595 3.072 11.093 11.733 0.256 0.768 6.229 18.816-3.499 33.621-9.771 14.805-17.323 25.216-32.981 34.304-1.58 0.974-3.55 2.053-5.572 3.046l-0.444 0.197c73.088 69.035 75.264 213.931 75.264 230.485 0 53.931-2.261 92.885-4.651 134.144-0.11 0.816-0.416 5.699-0.694 10.588l-0.159 3.492c3.441-1.758 6.402-3.847 9.026-6.293l-0.023 0.021c5.845-5.333 16.64-11.648 22.4-12.331l0.981-0.085c1.731-0.281 3.739-0.451 5.784-0.469h0.019c6.827 0 14.72 2.56 19.84 16.725 4.741 3.537 7.778 9.13 7.778 15.433 0 0.244-0.005 0.488-0.014 0.73l0.001-0.035c-0.043 11.221-2.901 16.299-13.995 24.619zM818.261 898.304c23.723-15.147 24.917-45.995 24.917-52.011 0-35.456-32.256-53.291-44.117-58.667-5.108 15.4-10.564 28.321-16.888 40.725l0.76-1.643c7.083 6.315 21.461 21.632 9.515 33.621-10.581 10.539-23.68 5.717-30.080 2.304-8.207 12.77-17.301 23.856-27.519 33.792l-0.044 0.042c13.099 7.211 49.792 23.381 83.456 1.835zM159.872 806.571c-3.243 6.485-8.064 27.563-1.109 48 4.965 14.516 15.451 26.030 28.888 32.244l0.338 0.14c33.792 16.256 64.725 2.731 75.776-3.371-9.783-11.025-18.698-23.268-26.373-36.328l-0.593-1.091c-6.869 3.584-23.083 9.813-30.421-6.315-7.083-15.573 6.101-24.747 12.459-28.117l-3.371-7.381c-4.139-9.301-7.68-20.395-10.709-32.512-8.747 2.347-32.768 10.624-44.885 34.731zM204.075 437.931l-1.323-28.373c-5.163-3.925-16.469-12.501-20.651-15.317-6.315-4.267-16.256-8.448-23.381-6.272-3.84 1.152-8.32 6.443-10.709 12.544 5.461 4.437 10.539 7.723 15.019 9.728l-2.432 5.504c-6.202-2.968-11.547-6.471-16.358-10.581l0.102 0.085c-2.391 2.839-3.929 6.467-4.179 10.444l-0.003 0.052c0.048 4.971 2.113 9.451 5.415 12.668l0.004 0.004c14.507 12.8 44.16 19.883 50.133 20.224 3.883 0.213 6.699 0.171 8.704 0.043-0.085-3.541-0.171-7.125-0.341-10.752zM329.344-17.579c-7.765-0.427-18.005-5.845-24.448-10.325-4.993-3.929-9.429-7.81-13.656-11.906l0.046 0.044c-6.827-6.229-15.275-13.909-18.773-15.829-5.589-3.072-11.435-2.347-11.477-2.347l-0.427 0.085c-8.917 0-13.867 1.792-18.347 6.869 2.475 13.355 20.864 33.451 21.035 33.664l-4.437 4.096c-0.811-0.896-18.048-19.712-22.059-34.645-4.846 3.341-8.034 8.787-8.234 14.989l-0.001 0.030c0 6.827 4.096 18.347 15.531 29.867 10.453 10.539 29.013 19.883 32.043 21.376 13.525 1.579 24.235-0.896 31.915-7.424 8.192-6.997 19.797-22.827 23.68-28.331-0.555-0.043-1.323-0.171-2.389-0.213zM788.309-9.088c8.064-12.331 2.859-28.245 2.859-28.245-2.645-6.485-4.352-7.168-7.168-8.064-3.541 15.019-10.88 29.269-16.427 35.627l-4.565-3.968c4.565-5.163 12.203-19.243 15.488-34.731-3.883-3.84-7.253-4.992-13.781-4.992-7.422 0.32-13.914 4.034-18.002 9.619l-0.046 0.066c-3.243 5.419-20.309 28.757-32.597 35.115-2.326 1.287-5.786 2.999-9.301 4.611l-1.238 0.509c6.443 4.736 12.203 10.453 17.451 15.616 2.776 2.81 5.626 5.512 8.563 8.117l0.184 0.16c4.868 3.848 10.731 6.665 17.135 8.016l0.273 0.048c1.408-0.597 5.077-2.133 10.155-5.077 14.549-8.448 21.717-18.347 31.019-32.427zM744.405 34.901l-1.579-1.408c-6.502-1.725-12.161-4.685-16.973-8.638l0.077 0.062c-3.292-2.849-6.281-5.649-9.158-8.561l-0.015-0.015c-3.072-3.072-6.4-6.315-9.899-9.472-62.251-38.955-131.84-47.701-218.88-47.701-74.283 0-120.192 12.843-152.32 28.416-4.736 6.571-15.488 20.992-23.68 27.989-8.363 7.168-19.627 10.155-33.493 9.088l-0.555 0.384c-31.019 22.059-65.707 77.483-68.736 109.867-1.621 17.195-1.579 48.256-1.536 75.648v23.083c0.064 71.867 2.045 143.098 5.896 213.832l-0.435-10.013c1.621 33.067-2.347 64-6.528 96.683-4.096 31.787-8.277 64.683-8.277 104.107 0 42.411 8.064 123.349 25.472 162.389 21.12 47.488 44.8 80.725 68.48 96.043 53.291 34.475 141.44 54.272 241.792 54.272 83.029 0 149.845-20.651 193.28-59.691 27.563-24.875 55.211-77.611 64.981-112.213 16-56.576 19.328-115.029 19.328-154.069 0-10.069-0.085-20.864-0.256-32.555-0.209-12.010-0.327-26.176-0.327-40.37 0-47.711 1.342-95.108 3.991-142.156l-0.293 6.526 1.195-20.565c2.389-41.088 4.608-79.915 4.608-133.589-0.043-16.427-2.133-162.517-76.16-227.371zM880.085 414.123c-5.717 5.675-16.683 10.155-18.091 10.709l-2.261-5.589c4.864-1.92 13.099-6.144 16.512-9.856-4.992-13.355-12.117-12.501-19.029-11.691l-1.067 0.128c-3.669 0.427-13.141 5.419-18.944 10.752-3.743 3.634-8.214 6.543-13.17 8.483l-0.27 0.093c-0.853 14.848-1.451 28.843-1.963 42.155 0.968 0.135 2.085 0.212 3.221 0.212s2.254-0.077 3.349-0.227l-0.127 0.014c7.296-0.896 34.475-8.107 44.117-15.36 9.6-7.211 11.563-10.539 11.563-19.797 0.004-0.131 0.007-0.286 0.007-0.441 0-3.721-1.466-7.1-3.852-9.591l0.005 0.005z" />
<glyph unicode="&#xe922;" glyph-name="python" d="M610.56 952.32l38.4-8.533 31.147-11.093 25.173-12.8 19.2-13.653 14.507-14.507 10.667-14.507 6.827-14.080 4.267-12.8 1.707-11.093 0.853-8.533-0.427-5.547v-227.84l-2.133-26.88-5.547-23.467-8.96-19.627-11.093-16.213-12.8-13.227-14.080-10.667-14.933-8.107-14.933-5.973-14.080-4.267-12.8-2.987-11.093-1.707-8.96-0.853h-254.72l-29.44-2.133-25.173-5.973-21.333-9.387-17.493-11.52-14.080-13.653-11.52-14.933-8.533-15.36-6.4-15.787-4.267-14.933-2.987-13.653-1.707-11.52-0.853-8.96v-130.56h-95.147l-8.96 1.28-11.947 2.987-13.653 5.12-14.933 7.68-15.36 11.093-15.36 15.36-14.933 19.627-13.653 25.173-11.947 31.147-8.96 37.547-5.973 44.8-2.133 52.48 2.56 52.053 6.827 44.373 10.24 37.12 13.653 30.293 15.36 24.32 17.067 18.773 17.92 14.080 17.92 10.24 17.067 6.827 15.36 4.267 13.653 2.133 10.24 0.427h6.827l2.56-0.427h348.16v35.413h-249.173l-0.427 117.333-0.853 15.787 2.133 14.507 4.693 13.227 7.253 11.947 10.667 11.093 13.227 9.813 16.213 8.533 18.773 7.68 21.76 6.4 24.747 5.12 27.307 4.267 30.293 2.56 32.853 1.707 35.84 0.853 54.187-2.133 45.653-5.547zM341.76 867.84l-9.813-14.080-3.413-17.493 3.413-17.493 9.813-14.507 14.080-9.387 17.493-3.84 17.493 3.84 14.080 9.387 9.813 14.507 3.413 17.493-3.413 17.493-9.813 14.080-14.080 9.387-17.493 3.84-17.493-3.84-14.080-9.387zM900.267 699.307l11.947-2.56 13.653-5.12 14.933-7.68 15.36-11.52 15.36-14.933 14.933-20.053 13.653-25.173 11.947-31.147 8.96-37.547 5.973-44.373 2.133-52.48-2.56-52.48-6.827-44.373-10.24-36.693-13.653-30.293-15.36-24.32-17.067-19.2-17.92-14.080-17.92-10.24-17.067-6.827-15.36-3.84-13.653-2.133-10.24-0.853-6.827 0.427h-350.72v-34.987h249.173l0.427-117.76 0.853-15.36-2.133-14.507-4.693-13.227-7.253-12.373-10.667-10.667-13.227-10.24-16.213-8.533-18.773-7.253-21.76-6.4-24.747-5.547-27.307-3.84-30.293-2.987-32.853-1.707-35.84-0.427-54.187 1.707-45.653 5.973-38.4 8.533-31.147 10.667-25.173 12.8-19.2 14.080-14.507 14.507-10.667 14.507-6.827 14.080-4.267 12.8-1.707 10.667-0.853 8.533 0.427 5.547v227.84l2.133 27.307 5.547 23.040 8.96 19.627 11.093 16.213 12.8 13.653 14.080 10.24 14.933 8.533 14.933 5.973 14.080 4.267 12.8 2.56 11.093 1.707 8.96 0.853 5.547 0.427h249.173l29.44 2.133 25.173 5.973 21.333 8.96 17.493 11.947 14.080 13.653 11.52 14.933 8.533 15.36 6.4 15.36 4.267 14.933 2.987 13.653 1.707 11.947 0.853 8.96v130.56h89.173l5.973-0.427 8.96-1.28zM624.213 91.307l-9.813-14.080-3.413-17.493 3.413-17.493 9.813-14.080 14.080-9.813 17.493-3.413 17.493 3.413 14.080 9.813 9.813 14.080 3.413 17.493-3.413 17.493-9.813 14.080-14.080 9.813-17.493 3.413-17.493-3.413-14.080-9.813z" />
<glyph unicode="&#xe923;" glyph-name="java" d="M377.643 168.107s-39.125-22.784 27.861-30.464c81.152-9.301 122.624-7.979 212.011 9.003 0 0 23.552-14.763 56.363-27.563-200.491-85.888-453.675 5.035-296.235 49.024zM353.109 280.192s-43.861-32.469 23.125-39.424c86.699-8.917 155.136-9.685 273.621 13.141 0 0 16.384-16.597 42.112-25.685-242.304-70.869-512.299-5.547-338.859 51.968zM559.616 470.4c49.408-56.875-12.971-108.075-12.971-108.075s125.397 64.768 67.797 145.835c-53.803 75.605-95.061 113.152 128.299 242.688 0 0.043-350.549-87.509-183.125-280.448zM824.747 85.163s28.971-23.851-31.872-42.283c-115.712-35.072-481.621-45.611-583.211-1.408-36.523 15.915 32 37.973 53.504 42.581 22.485 4.864 35.328 3.968 35.328 3.968-40.661 28.629-262.656-56.192-112.768-80.512 408.747-66.261 745.045 29.867 639.019 77.653zM396.459 396.373s-186.112-44.203-65.877-60.245c50.731-6.784 151.936-5.248 246.187 2.645 77.056 6.485 154.368 20.352 154.368 20.352s-27.179-11.605-46.848-25.045c-188.971-49.707-554.069-26.581-448.939 24.235 88.832 42.923 161.109 38.059 161.109 38.059zM730.283 209.749c192.128 99.84 103.296 195.797 41.301 182.827-15.147-3.157-21.973-5.888-21.973-5.888s5.632 8.832 16.427 12.672c122.667 43.136 217.003-127.189-39.595-194.645 0 0.043 2.987 2.645 3.84 5.035zM614.443 960s106.411-106.411-100.907-270.080c-166.229-131.285-37.888-206.165-0.043-291.669-97.024 87.595-168.235 164.608-120.491 236.331 70.144 105.344 264.405 156.373 221.44 325.419zM415.317-60.757c184.405-11.819 467.584 6.528 474.283 93.781 0 0-12.885-33.067-152.405-59.349-157.355-29.611-351.531-26.155-466.645-7.168 0 0.043 23.595-19.499 144.768-27.264z" />
<glyph unicode="&#xe924;" glyph-name="linux" horiz-adv-x="915" d="M378.857 716v0c-11.429-1.143-7.429-11.429-13.714-11.429-5.714-0.571-4.571 12.571 13.714 11.429zM428.571 708c-5.714-1.714-6.286 9.143-16.571 6.286v0c16.571 7.429 22.286-4 16.571-6.286zM228 464c-5.143 1.714-4-8.571-9.143-16.571-4-7.429-14.286-13.143-6.286-14.286v0c2.857-0.571 10.857 6.286 14.286 14.286 2.857 9.714 5.714 14.857 1.143 16.571zM716.571 258.857c0 10.286-22.286 20-31.429 24 15.429 51.429 8.571 72-1.714 120.571-8 36.571-41.714 86.286-68 101.714 6.857-5.714 19.429-22.286 32.571-47.429 22.857-42.857 45.714-106.286 30.857-158.857-5.714-20.571-19.429-23.429-28.571-24-40-4.571-16.571 48-33.143 119.429-18.857 80-38.286 85.714-42.857 92-23.429 104-49.143 93.714-56.571 132.571-6.286 34.857 30.286 63.429-19.429 73.143-15.429 2.857-37.143 18.286-45.714 19.429s-13.143 57.714 18.857 59.429c31.429 2.286 37.143-35.429 31.429-50.286-9.143-14.857 0.571-20.571 16-15.429 12.571 4 4.571 37.143 7.429 41.714-8 48-28 54.857-48.571 58.857-78.857-6.286-43.429-93.143-51.429-85.143-11.429 12-44.571 1.143-44.571 8.571 0.571 44.571-14.286 70.286-34.857 70.857-22.857 0.571-32-31.429-33.143-49.714-1.714-17.143 9.714-53.143 18.286-50.286 5.714 1.714 15.429 13.143 5.143 12.571-5.143 0-13.143 12.571-14.286 27.429-0.571 14.857 5.143 29.714 24.571 29.143 22.286-0.571 22.286-45.143 20-46.857-7.429-5.143-16.571-14.857-17.714-16.571-7.429-12-21.714-15.429-27.429-20.571-9.714-10.286-12-21.714-4.571-25.714 26.286-14.857 17.714-32 54.286-33.143 24-1.143 41.714 3.429 58.286 8.571 12.571 4 53.143 12.571 61.714 27.429 4 6.286 8.571 6.286 11.429 4.571 5.714-2.857 6.857-13.714-7.429-17.143-20-5.714-40-16.571-58.286-23.429-17.714-7.429-23.429-10.286-40-13.143-37.714-6.857-65.714 13.714-40.571-10.857 8.571-8 16.571-13.143 38.286-12.571 48 1.714 101.143 59.429 106.286 33.714 1.143-5.714-14.857-12.571-27.429-18.857-44.571-21.714-76-65.143-104.571-50.286-25.714 13.714-51.429 77.143-50.857 48.571 0.571-44-57.714-82.857-30.857-133.143-17.714-4.571-57.143-88.571-62.857-132-3.429-25.143 2.286-56-4-73.143-8.571-25.143-47.429 24-34.857 84 2.286 10.286 0 12.571-2.857 7.429-15.429-28-6.857-67.429 5.714-94.857 5.143-12 18.286-17.143 28-27.429 20-22.857 98.857-81.143 112.571-95.429 17.714-16.571 12.571-55.429-24-59.429v0c18.857-35.429 37.143-38.857 36.571-96.571 21.714 11.429 13.143 36.571 4 52.571-6.286 11.429-14.286 16.571-12.571 19.429 1.143 1.714 12.571 11.429 18.857 4 19.429-21.714 56-25.714 94.857-20.571 39.429 4.571 81.714 18.286 101.143 49.714 9.143 14.857 15.429 20 19.429 17.143 4.571-2.286 6.286-12.571 5.714-29.714-0.571-18.286-8-37.143-13.143-52.571-5.143-17.714-6.857-29.714 10.286-30.286 4.571 32 13.714 63.429 16 95.429 2.857 36.571-23.429 104 5.143 137.714 7.429 9.143 16.571 10.286 29.143 10.286 1.714 45.714 72 42.286 95.429 23.429zM357.714 731.428c2.286 14.286-4.571 24.571-8 25.714-6.857 1.714-5.714-8.571-2.286-7.429v0c2.286 0 5.143-3.429 4-8.571-1.143-6.857-0.571-11.429 4.571-11.429 0.571 0 1.714 0 1.714 1.714zM597.143 618.857c-2.286 10.857-10.286 6.857-19.429 12.571-10.857 6.857-13.143 18.286-17.143 14.286v0c-12-13.143 14.857-40.571 26.286-42.857 6.857-1.143 12 8 10.286 16zM495.429 740.571c0.571 13.714-11.429 20.571-14.286 20-7.429-0.571-5.143-4-1.714-5.143v0c4.571-1.143 9.143-9.143 10.286-17.714 0-1.143 5.714 1.143 5.714 2.857zM526.286 873.714c0.571 2.857-6.857 6.286-12 10.286-4.571 4.571-9.143 8.571-13.714 8.571-11.429-1.143-5.714-13.143-7.429-18.857v0c-2.286-6.286-10.857-11.429-5.143-16 5.143-4 8.571 6.286 19.429 10.286 2.857 1.143 16-0.571 18.857 5.714zM849.143 107.428c70.286-43.429-26.286-79.429-68-100.571-32.571-16.571-76-53.143-92-68.571-12-11.429-61.714-17.143-89.714-2.857-32.571 16.571-15.429 42.857-65.714 44.571-25.143 0.571-49.714 0.571-74.286 0.571-21.714-0.571-43.429-1.714-65.714-2.286-75.429-1.714-82.857-50.286-131.429-48.571-33.143 1.143-74.857 27.429-146.857 42.286-50.286 10.286-98.857 13.143-109.143 35.429s12.571 47.429 14.286 69.143c1.714 29.143-21.714 68.571-4.571 83.429 14.857 13.143 46.286 3.429 66.857 14.857 21.714 12.571 30.857 22.286 30.857 49.143 8-27.429-0.571-49.714-18.286-60.571-10.857-6.857-30.857-10.286-47.429-8.571-13.143 1.143-21.143-0.571-24.571-5.714-5.143-6.286-3.429-17.714 2.857-32.571s13.714-24.571 12.571-42.857c-0.571-18.286-21.143-40-17.714-55.429 1.143-5.714 6.857-10.857 21.143-14.857 22.857-6.286 64.571-12.571 105.143-22.286 45.143-11.429 92-32 121.143-28 86.857 12 37.143 105.143 23.429 127.429v0c-73.714 115.429-122.286 190.857-161.143 161.143-9.714-8-10.286 19.429-9.714 30.286 1.714 37.714 20.571 51.429 32 80.571 21.714 55.429 38.286 118.857 71.429 151.429 24.571 32 63.429 84 70.857 111.429-6.286 59.429-8 122.286-9.143 177.143-1.143 58.857 8 110.286 74.286 146.286 16 8.571 37.143 12 59.429 12 39.429 0.571 83.429-10.857 111.429-31.429 44.571-33.143 72.571-103.429 69.143-153.714-2.286-39.429 4.571-80 17.143-122.286 14.857-49.714 38.286-84.571 76-124.571 45.143-48 80.571-142.286 90.857-202.286 9.143-56-3.429-90.857-15.429-92.571-18.286-2.857-29.714-60.571-86.857-58.286-36.571 1.714-40 23.429-50.286 42.286-16.571 29.143-33.143 20-39.429-10.857-3.429-15.429-1.143-38.286 4-55.429 10.286-36 6.857-69.714 0.571-111.429-12-78.857 55.429-93.714 100.571-56 44.571 37.143 54.286 42.857 110.286 62.286 85.143 29.143 56.571 54.857 10.857 70.286-41.143 13.714-42.857 82.857-28 96 3.429-74.286 42.286-85.143 58.286-95.429z" />
<glyph unicode="&#xe925;" glyph-name="pending" d="M230.99 320.224c60.924 76.782 148.198 92.111 148.198 153.564 0 61.419-87.274 84.413-148.198 153.529-85.199 96.696-112.45 345.483-112.45 345.483h786.916c0 0-27.251-248.787-112.45-345.483-60.884-69.117-148.198-92.111-148.198-153.529 0-61.452 87.313-76.782 148.198-153.564 81.284-102.453 113.978-371.424 113.978-371.424h-789.97c0 0 32.732 268.97 113.978 371.424zM477.072 473.787c0-74.807-58.026-115.473-100.429-145.163-24.001-16.802-46.593-32.634-64.644-55.361-35.747-45.051-64.956-150.015-82.693-240.788h565.344c-17.815 90.839-47.024 195.87-82.654 240.788-18.011 22.726-40.641 38.559-64.604 55.361-42.404 29.688-100.469 70.355-100.469 145.163 0 76.38 61.472 120.461 106.343 152.626 22.865 16.367 44.44 31.83 61.55 51.276 33.79 38.291 61.629 128.761 78.504 211.434h-562.603c16.953-82.706 44.831-173.278 78.465-211.434 17.111-19.446 38.684-34.91 61.55-51.276 44.91-32.165 106.343-76.246 106.343-152.626zM574.494 638.101l-15.035 20.083c73.649 90.204 26.194 184.557 26.273 185.461h121.024c-0.509-5.423-13.665-140.643-132.261-205.543zM435.89 80.932h-126.036c0.509 5.656 14.213 146.468 137.783 214.078l15.623-20.92c-76.703-93.953-27.29-192.255-27.369-193.159z" />
<glyph unicode="&#xe926;" glyph-name="git-merge" horiz-adv-x="768" d="M640 512c-46.72 0-88.32-26.24-110.72-65.28v1.28c-67.2 1.28-145.28 23.040-200.32 65.28-48 37.12-96 103.040-120.96 156.16 29.322 23.571 47.93 59.437 47.93 99.649 0 70.445-57.107 127.552-127.552 127.552-0.133 0-0.266 0-0.399-0.001h0.021c-71.040 0-128-57.6-128-128.64 0.292-46.831 25.687-87.665 63.396-109.753l0.604-0.327v-419.84c-37.76-22.4-64-63.36-64-110.080 0-71.040 56.96-128 128-128 0.1 0 0.219 0 0.337 0 70.445 0 127.552 57.107 127.552 127.552 0 47.009-25.43 88.079-63.285 110.202l-0.604 0.326v231.040c42.88-44.8 92.16-81.28 147.2-108.16s129.92-40.32 190.080-40.96v1.28c23.040-39.040 64-65.28 110.72-65.28 71.040 0 128 56.96 128 128s-56.96 128-128 128zM204.8 128c0-42.24-35.2-76.8-76.8-76.8s-76.8 35.2-76.8 76.8c0 41.6 35.2 76.8 76.8 76.8s76.8-35.2 76.8-76.8zM128 691.2c-42.24 0-76.8 35.2-76.8 76.8s35.2 76.8 76.8 76.8c41.6 0 76.8-35.2 76.8-76.8s-35.2-76.8-76.8-76.8zM640 307.2c-42.24 0-76.8 35.2-76.8 76.8s35.2 76.8 76.8 76.8c41.6 0 76.8-35.2 76.8-76.8s-35.2-76.8-76.8-76.8z" />
<glyph unicode="&#xe927;" glyph-name="file_copy" d="M598 426.667h234l-234 234v-234zM640 724.667l256-256v-426q0-34-26-60t-60-26h-470q-34 0-59 26t-25 60v598q0 34 26 59t60 25h298zM682 896.667v-86h-512v-598h-84v598q0 34 25 60t59 26h512z" />
<glyph unicode="&#xe928;" glyph-name="git-compare" horiz-adv-x="896" d="M320 192h-64c-17.28 1.28-30.72 7.040-44.16 19.84s-19.2 26.88-19.84 44.16v401.92c38.459 22.45 63.889 63.519 63.889 110.528 0 70.445-57.107 127.552-127.552 127.552-0.119 0-0.237 0-0.355 0h0.018c-0.1 0-0.219 0-0.337 0-70.445 0-127.552-57.107-127.552-127.552 0-47.009 25.43-88.079 63.285-110.202l0.604-0.326v-401.92c1.92-49.92 21.76-94.080 60.16-131.84s81.92-58.24 131.84-60.16h64v-128l192 192-192 192v-128zM128 844.8c42.24 0 76.8-35.2 76.8-76.8s-35.2-76.8-76.8-76.8c-41.6 0-76.8 35.2-76.8 76.8s35.2 76.8 76.8 76.8zM832 238.080v401.92c-1.92 49.92-21.76 94.080-60.16 131.84s-81.92 58.24-131.84 60.16h-64v128l-192-192 192-192v128h64c17.28-1.28 30.72-7.040 44.16-19.84s19.2-26.88 19.84-44.16v-401.92c-38.459-22.45-63.889-63.519-63.889-110.528 0-70.445 57.107-127.552 127.552-127.552 0.119 0 0.237 0 0.355 0h-0.018c0.1 0 0.219 0 0.337 0 70.445 0 127.552 57.107 127.552 127.552 0 47.009-25.43 88.079-63.285 110.202l-0.604 0.326zM768 51.2c-42.24 0-76.8 35.2-76.8 76.8s35.2 76.8 76.8 76.8c41.6 0 76.8-35.2 76.8-76.8s-35.2-76.8-76.8-76.8z" />
<glyph unicode="&#xe929;" glyph-name="git-commit" horiz-adv-x="896" d="M695.040 512c-28.8 110.080-128 192-247.040 192s-218.24-81.92-247.040-192h-200.96v-128h200.96c28.8-110.080 128-192 247.040-192s218.24 81.92 247.040 192h200.96v128h-200.96zM448 307.2c-78.080 0-140.8 62.72-140.8 140.8s62.72 140.8 140.8 140.8c78.080 0 140.8-62.72 140.8-140.8s-62.72-140.8-140.8-140.8z" />
<glyph unicode="&#xe92a;" glyph-name="git-branch" horiz-adv-x="640" d="M640 640c0 71.040-56.96 128-128 128-0.1 0-0.219 0-0.337 0-70.445 0-127.552-57.107-127.552-127.552 0-47.009 25.43-88.079 63.285-110.202l0.604-0.326v-19.2c-1.28-33.28-14.72-62.72-40.32-88.32s-55.040-39.040-88.32-40.32c-53.12-1.28-94.72-10.24-128-28.8v304.64c38.459 22.45 63.889 63.519 63.889 110.528 0 70.445-57.107 127.552-127.552 127.552-0.119 0-0.237 0-0.355 0h0.018c-71.040 0-127.36-56.96-127.36-128 0.292-46.831 25.687-87.665 63.396-109.753l0.604-0.327v-419.84c-37.76-22.4-64-63.36-64-110.080 0-71.040 56.96-128 128-128s128 56.96 128 128c0 33.92-12.8 64-33.92 87.040 5.76 3.84 30.72 26.24 37.76 30.080 16 7.040 35.84 10.88 60.16 10.88 67.2 3.2 124.8 28.8 176 80s76.8 126.72 80 193.28h-1.28c39.040 23.040 65.28 64 65.28 110.72zM128 844.8c42.24 0 76.8-35.2 76.8-76.8s-35.2-76.8-76.8-76.8c-41.6 0-76.8 35.2-76.8 76.8s35.2 76.8 76.8 76.8zM128 50.56c-42.24 0-76.8 35.2-76.8 76.8s35.2 76.8 76.8 76.8c41.6 0 76.8-35.2 76.8-76.8s-35.2-76.8-76.8-76.8zM512 562.56c-42.24 0-76.8 35.2-76.8 76.8s35.2 76.8 76.8 76.8c41.6 0 76.8-35.2 76.8-76.8s-35.2-76.8-76.8-76.8z" />
<glyph unicode="&#xe92b;" glyph-name="clock" horiz-adv-x="896" d="M512 448h192v-128h-256c-35.2 0-64 28.8-64 64v320h128v-256zM448 812.8c200.96 0 364.8-163.84 364.8-364.8s-163.84-364.8-364.8-364.8c-201.327 0.364-364.437 163.473-364.8 364.765v0.035c0 200.96 163.84 364.8 364.8 364.8zM448 896c-247.040 0-448-200.96-448-448s200.96-448 448-448 448 200.96 448 448-200.96 448-448 448z" />
<glyph unicode="&#xe934;" glyph-name="circle-check" d="M512-51.2c-282.77 0-512 229.23-512 512s229.23 512 512 512c282.77 0 512-229.23 512-512s-229.23-512-512-512zM449.706 228.073l324.164 424.036-56.61 41.419-271.751-350.56-143.156 157.683-52.87-48.048 200.223-224.53z" />
<glyph unicode="&#xe93a;" glyph-name="stopped" d="M862.437 110.363c-193.532-193.563-507.341-193.563-700.874 0-193.563 193.532-193.563 507.341 0 700.874 193.532 193.563 507.341 193.563 700.874 0 193.563-193.563 193.563-507.341 0-700.874zM249.193 197.961c130.188-130.188 332.765-143.229 477.915-39.865l-517.78 517.78c-103.364-145.149-90.323-347.696 39.865-477.915zM774.839 723.607c-130.188 130.188-332.765 143.229-477.884 39.865l517.78-517.749c103.332 145.118 90.292 347.696-39.896 477.884z" />
<glyph unicode="&#xe947;" glyph-name="failure" d="M982.535 836.217l-95.117 95.117-361.949-361.949-361.949 361.949-95.117-95.117 361.949-361.949-361.949-361.949 95.117-95.117 361.949 361.949 361.949-361.949 95.117 95.117-361.949 361.949z" />
<glyph unicode="&#xe949;" glyph-name="running" d="M473.090 877.109c-190.75 0-349.078-140.292-375.965-322.423h-97.123c27.442 235.363 228.719 418.114 473.088 418.114 187.215 0 349.026-107.315 426.874-263.321l29.674 175.294 94.362-15.985-56.935-336.305-336.318 56.935 15.972 94.362 172.842-29.274c-59.618 131.106-192.453 222.604-346.472 222.604zM550.897 44.492c190.75 0 349.078 140.305 375.965 322.436h97.136c-27.455-235.376-228.732-418.127-473.1-418.127-187.215 0-349.026 107.315-426.874 263.321l-29.674-175.281-94.349 15.972 56.922 336.305 336.318-56.922-15.972-94.362-172.842 29.261c59.618-131.106 192.453-222.604 346.472-222.604z" />
<glyph unicode="&#xe9e1;" glyph-name="smile" d="M512-64c282.77 0 512 229.23 512 512s-229.23 512-512 512-512-229.23-512-512 229.23-512 512-512zM512 864c229.75 0 416-186.25 416-416s-186.25-416-416-416-416 186.25-416 416 186.25 416 416 416zM256 640c0 35.346 28.654 64 64 64s64-28.654 64-64c0-35.346-28.654-64-64-64s-64 28.654-64 64zM640 640c0 35.346 28.654 64 64 64s64-28.654 64-64c0-35.346-28.654-64-64-64s-64 28.654-64 64zM704.098 332.74l82.328-49.396c-55.962-93.070-157.916-155.344-274.426-155.344s-218.464 62.274-274.426 155.344l82.328 49.396c39.174-65.148 110.542-108.74 192.098-108.74s152.924 43.592 192.098 108.74z" />
<glyph unicode="&#xe9e3;" glyph-name="tongue" d="M512-64c282.77 0 512 229.23 512 512s-229.23 512-512 512-512-229.23-512-512 229.23-512 512-512zM512 864c229.75 0 416-186.25 416-416s-186.25-416-416-416-416 186.25-416 416 186.25 416 416 416zM256 640c0 35.346 28.654 64 64 64s64-28.654 64-64c0-35.346-28.654-64-64-64s-64 28.654-64 64zM640 640c0 35.346 28.654 64 64 64s64-28.654 64-64c0-35.346-28.654-64-64-64s-64 28.654-64 64zM768 384v-64h-64v-96c0-53.020-42.98-96-96-96s-96 42.98-96 96v96h-256v64h512z" />
<glyph unicode="&#xe9e5;" glyph-name="sad" d="M512-64c282.77 0 512 229.23 512 512s-229.23 512-512 512-512-229.23-512-512 229.23-512 512-512zM512 864c229.75 0 416-186.25 416-416s-186.25-416-416-416-416 186.25-416 416 186.25 416 416 416zM256 640c0 35.346 28.654 64 64 64s64-28.654 64-64c0-35.346-28.654-64-64-64s-64 28.654-64 64zM640 640c0 35.346 28.654 64 64 64s64-28.654 64-64c0-35.346-28.654-64-64-64s-64 28.654-64 64zM319.902 179.26l-82.328 49.396c55.962 93.070 157.916 155.344 274.426 155.344 116.508 0 218.462-62.274 274.426-155.344l-82.328-49.396c-39.174 65.148-110.542 108.74-192.098 108.74-81.558 0-152.924-43.592-192.098-108.74z" />
<glyph unicode="&#xe9e7;" glyph-name="wink" d="M512-64c282.77 0 512 229.23 512 512s-229.23 512-512 512-512-229.23-512-512 229.23-512 512-512zM512 864c229.75 0 416-186.25 416-416s-186.25-416-416-416-416 186.25-416 416 186.25 416 416 416zM542.74 248.972c140.248 27.706 249.11 91.542 288.454 176.594-21.654-167.956-161.518-297.566-330.85-297.566-119.242 0-223.858 64.282-282.892 160.948 70.41-55.058 194.534-65.808 325.288-39.976zM640 608c0 53.019 28.654 96 64 96s64-42.981 64-96c0-53.019-28.654-96-64-96s-64 42.981-64 96zM352 588.5c-41.796 0-77.334-15.656-90.516-37.5-3.54 5.866-5.484 32.174-5.484 38.75 0 31.066 42.98 56.25 96 56.25s96-25.184 96-56.25c0-6.576-1.944-32.884-5.484-38.75-13.182 21.844-48.72 37.5-90.516 37.5z" />
<glyph unicode="&#xe9e9;" glyph-name="grin" d="M512-64c282.77 0 512 229.23 512 512s-229.23 512-512 512-512-229.23-512-512 229.23-512 512-512zM512 864c229.75 0 416-186.25 416-416s-186.25-416-416-416-416 186.25-416 416 186.25 416 416 416zM192 448v-64c0-140.8 115.2-256 256-256h128c140.8 0 256 115.2 256 256v64h-640zM384 203.012c-26.538 9.458-50.924 24.822-71.544 45.446-36.406 36.402-56.456 84.54-56.456 135.542h128v-180.988zM576 192h-128v192h128v-192zM711.544 248.458c-20.624-20.624-45.010-35.988-71.544-45.446v180.988h128c0-51.002-20.048-99.14-56.456-135.542zM225.352 576c0.002 0 0 0 0 0 9.768 0 18.108 7.056 19.724 16.69 6.158 36.684 37.668 63.31 74.924 63.31s68.766-26.626 74.924-63.31c1.616-9.632 9.956-16.69 19.722-16.69 9.768 0 18.108 7.056 19.724 16.688 1.082 6.436 1.628 12.934 1.628 19.312 0 63.962-52.038 116-116 116s-116-52.038-116-116c0-6.378 0.548-12.876 1.628-19.312 1.62-9.632 9.96-16.688 19.726-16.688zM609.352 576c0.002 0 0 0 0 0 9.77 0 18.112 7.056 19.724 16.69 6.158 36.684 37.668 63.31 74.924 63.31s68.766-26.626 74.924-63.31c1.616-9.632 9.958-16.69 19.722-16.69s18.108 7.056 19.722 16.688c1.082 6.436 1.628 12.934 1.628 19.312 0 63.962-52.038 116-116 116s-116-52.038-116-116c0-6.378 0.544-12.876 1.626-19.312 1.624-9.632 9.964-16.688 19.73-16.688z" />
<glyph unicode="&#xe9eb;" glyph-name="cool" d="M512-64c282.77 0 512 229.23 512 512s-229.23 512-512 512-512-229.23-512-512 229.23-512 512-512zM512 864c229.75 0 416-186.25 416-416s-186.25-416-416-416-416 186.25-416 416 186.25 416 416 416zM800 704c17.6 0 32-14.4 32-32v-96c0-35.2-28.8-64-64-64h-128c-35.2 0-64 28.8-64 64h-128c0-35.2-28.8-64-64-64h-128c-35.2 0-64 28.8-64 64v96c0 17.6 14.4 32 32 32h192c17.6 0 32-14.4 32-32v-32h128v32c0 17.6 14.4 32 32 32h192zM512 192c93.208 0 174.772 49.818 219.546 124.278l54.88-32.934c-55.966-93.070-157.916-155.344-274.426-155.344-48.458 0-94.384 10.796-135.54 30.082l33.162 55.278c31.354-13.714 65.964-21.36 102.378-21.36z" />
<glyph unicode="&#xe9ed;" glyph-name="angry" d="M512-64c282.77 0 512 229.23 512 512s-229.23 512-512 512-512-229.23-512-512 229.23-512 512-512zM512 864c229.75 0 416-186.25 416-416s-186.25-416-416-416-416 186.25-416 416 186.25 416 416 416zM704.098 179.26c-39.174 65.148-110.544 108.74-192.098 108.74-81.556 0-152.924-43.592-192.098-108.74l-82.328 49.396c55.96 93.070 157.916 155.344 274.426 155.344 116.508 0 218.464-62.274 274.426-155.344l-82.328-49.396zM767.042 679.76c4.284-17.144-6.14-34.518-23.282-38.804-17.626-4.45-38.522-12.12-56.936-21.35 10.648-11.43 17.174-26.752 17.174-43.606 0-35.346-28.654-64-64-64s-64 28.654-64 64c0 1.17 0.036 2.33 0.098 3.484 2.032 47.454 45.212 78.946 81.592 97.138 34.742 17.37 69.102 26.060 70.548 26.422 17.146 4.288 34.518-6.138 38.806-23.284zM256.958 679.76c4.288 17.146 21.66 27.572 38.806 23.284 1.446-0.362 35.806-9.052 70.548-26.422 36.38-18.192 79.56-49.684 81.592-97.138 0.062-1.154 0.098-2.314 0.098-3.484 0-35.346-28.654-64-64-64s-64 28.654-64 64c0 16.854 6.526 32.176 17.174 43.606-18.414 9.23-39.31 16.9-56.936 21.35-17.142 4.286-27.566 21.66-23.282 38.804z" />
<glyph unicode="&#xe9f1;" glyph-name="shocked" d="M512-64c282.77 0 512 229.23 512 512s-229.23 512-512 512-512-229.23-512-512 229.23-512 512-512zM512 864c229.75 0 416-186.25 416-416s-186.25-416-416-416-416 186.25-416 416 186.25 416 416 416zM384 256c0 70.692 57.308 128 128 128s128-57.308 128-128c0-70.692-57.308-128-128-128s-128 57.308-128 128zM640 608c0 53.019 28.654 96 64 96s64-42.981 64-96c0-53.019-28.654-96-64-96s-64 42.981-64 96zM256 608c0 53.019 28.654 96 64 96s64-42.981 64-96c0-53.019-28.654-96-64-96s-64 42.981-64 96z" />
<glyph unicode="&#xe9f3;" glyph-name="baffled" d="M512-64c282.77 0 512 229.23 512 512s-229.23 512-512 512-512-229.23-512-512 229.23-512 512-512zM512 864c229.75 0 416-186.25 416-416s-186.25-416-416-416-416 186.25-416 416 186.25 416 416 416zM384 544c0-17.673-14.327-32-32-32s-32 14.327-32 32c0 17.673 14.327 32 32 32s32-14.327 32-32zM352 640c53.020 0 96-42.98 96-96s-42.98-96-96-96-96 42.98-96 96 42.98 96 96 96zM352 704c-88.224 0-160-71.776-160-160s71.776-160 160-160 160 71.776 160 160-71.776 160-160 160v0zM704 544c0-17.673-14.327-32-32-32s-32 14.327-32 32c0 17.673 14.327 32 32 32s32-14.327 32-32zM672 640c53.020 0 96-42.98 96-96s-42.98-96-96-96-96 42.98-96 96 42.98 96 96 96zM672 704c-88.224 0-160-71.776-160-160s71.776-160 160-160 160 71.776 160 160-71.776 160-160 160v0zM384 256h256v-64h-256v64z" />
<glyph unicode="&#xe9f5;" glyph-name="confused" d="M512-64c282.77 0 512 229.23 512 512s-229.23 512-512 512-512-229.23-512-512 229.23-512 512-512zM512 864c229.75 0 416-186.25 416-416s-186.25-416-416-416-416 186.25-416 416 186.25 416 416 416zM256 640c0 35.346 28.654 64 64 64s64-28.654 64-64c0-35.346-28.654-64-64-64s-64 28.654-64 64zM640 640c0 35.346 28.654 64 64 64s64-28.654 64-64c0-35.346-28.654-64-64-64s-64 28.654-64 64zM726.106 320h64.864c9.246-72.506-32.452-144.53-103.958-170.56-82.904-30.176-174.9 12.716-205.080 95.616-18.108 49.744-73.306 75.482-123.048 57.372-45.562-16.588-70.956-64.298-60.988-110.424h-64.86c-9.242 72.508 32.45 144.528 103.956 170.56 82.904 30.178 174.902-12.716 205.082-95.614 18.104-49.748 73.306-75.482 123.044-57.372 45.562 16.584 70.956 64.298 60.988 110.422z" />
<glyph unicode="&#xe9f7;" glyph-name="neutral" d="M512-64c282.77 0 512 229.23 512 512s-229.23 512-512 512-512-229.23-512-512 229.23-512 512-512zM512 864c229.75 0 416-186.25 416-416s-186.25-416-416-416-416 186.25-416 416 186.25 416 416 416zM256 640c0-35.346 28.654-64 64-64s64 28.654 64 64-28.654 64-64 64-64-28.654-64-64zM640 640c0-35.346 28.654-64 64-64s64 28.654 64 64-28.654 64-64 64-64-28.654-64-64zM384 256h256v-64h-256v64z" />
<glyph unicode="&#xe9f9;" glyph-name="hipster" d="M512-64c282.77 0 512 229.23 512 512s-229.23 512-512 512-512-229.23-512-512 229.23-512 512-512zM512 864c229.75 0 416-186.25 416-416s-186.25-416-416-416-416 186.25-416 416 186.25 416 416 416zM256 640c0 35.346 28.654 64 64 64s64-28.654 64-64-28.654-64-64-64-64 28.654-64 64zM640 640c0 35.346 28.654 64 64 64s64-28.654 64-64-28.654-64-64-64-64 28.654-64 64zM675.882 419.882c-37.49 37.49-98.276 37.49-135.766 0s-37.49-98.276 0-135.766c1.204-1.204 2.434-2.368 3.684-3.492 86.528-78.512 288.2 1.842 288.2 103.376-62-40-110.45-9.786-156.118 35.882zM348.118 419.882c37.49 37.49 98.276 37.49 135.766 0s37.49-98.276 0-135.766c-1.204-1.204-2.434-2.368-3.684-3.492-86.528-78.512-288.2 1.842-288.2 103.376 62-40 110.45-9.786 156.118 35.882z" />
<glyph unicode="&#xe9fb;" glyph-name="wondering" d="M512-64c282.77 0 512 229.23 512 512s-229.23 512-512 512-512-229.23-512-512 229.23-512 512-512zM512 864c229.75 0 416-186.25 416-416s-186.25-416-416-416-416 186.25-416 416 186.25 416 416 416zM745.74 358.38l22.488-76.776-437.008-128.002-22.488 76.776zM256 640c0 35.346 28.654 64 64 64s64-28.654 64-64c0-35.346-28.654-64-64-64s-64 28.654-64 64zM640 640c0 35.346 28.654 64 64 64s64-28.654 64-64c0-35.346-28.654-64-64-64s-64 28.654-64 64z" />
<glyph unicode="&#xe9fd;" glyph-name="sleepy" d="M512-64c282.77 0 512 229.23 512 512s-229.23 512-512 512-512-229.23-512-512 229.23-512 512-512zM512 864c229.75 0 416-186.25 416-416s-186.25-416-416-416-416 186.25-416 416 186.25 416 416 416zM640 288c0-88.366-57.308-160-128.002-160s-128.002 71.634-128.002 160c0 88.366 57.308 160 128.002 160s128.002-71.634 128.002-160zM416 620c-8.19 0-16.378 3.124-22.626 9.374-19.334 19.332-63.412 19.332-82.746 0-12.496-12.498-32.758-12.498-45.254 0-12.498 12.496-12.498 32.758 0 45.254 44.528 44.53 128.726 44.53 173.254 0 12.498-12.496 12.498-32.758 0-45.254-6.248-6.25-14.438-9.374-22.628-9.374zM736 620c-8.19 0-16.378 3.124-22.626 9.374-19.332 19.332-63.414 19.332-82.746 0-12.496-12.498-32.758-12.498-45.254 0-12.498 12.496-12.498 32.758 0 45.254 44.528 44.53 128.726 44.53 173.254 0 12.498-12.496 12.498-32.758 0-45.254-6.248-6.25-14.438-9.374-22.628-9.374z" />
<glyph unicode="&#xe9ff;" glyph-name="frustrated" d="M366.312 676.622c-34.742 17.37-69.102 26.060-70.548 26.422-17.146 4.288-34.518-6.138-38.806-23.284-4.284-17.144 6.14-34.518 23.282-38.804 17.626-4.45 38.522-12.12 56.936-21.35-10.648-11.43-17.174-26.752-17.174-43.606 0-35.346 28.654-64 64-64s64 28.654 64 64c0 1.17-0.036 2.33-0.098 3.484-2.032 47.454-45.212 78.946-81.592 97.138zM512 960c-282.77 0-512-229.23-512-512s229.23-512 512-512 512 229.23 512 512-229.23 512-512 512zM236.498 136.336c10.706-5.324 22.756-8.336 35.502-8.336h480c12.746 0 24.796 3.012 35.502 8.338-73.378-64.914-169.828-104.338-275.502-104.338-105.672 0-202.124 39.424-275.502 104.336zM256 208v96c0 8.674 7.328 16 16 16h112v-128h-112c-8.672 0-16 7.326-16 16zM448 192v128h128v-128h-128zM640 192v128h112c8.674 0 16-7.326 16-16v-96c0-8.674-7.326-16-16-16h-112zM823.662 172.498c5.326 10.706 8.338 22.756 8.338 35.502v96c0 44.112-35.888 80-80 80h-480c-44.112 0-80-35.888-80-80v-96c0-12.746 3.012-24.796 8.336-35.502-64.912 73.378-104.336 169.828-104.336 275.502 0 229.75 186.25 416 416 416s416-186.25 416-416c0-105.674-39.424-202.124-104.338-275.502zM728.236 703.044c-1.448-0.362-35.806-9.052-70.548-26.422-36.378-18.192-79.558-49.684-81.592-97.138-0.060-1.154-0.098-2.314-0.098-3.484 0-35.346 28.654-64 64-64s64 28.654 64 64c0 16.854-6.526 32.176-17.174 43.606 18.414 9.23 39.31 16.9 56.936 21.35 17.142 4.286 27.566 21.66 23.284 38.804-4.29 17.146-21.662 27.572-38.808 23.284z" />
<glyph unicode="&#xea01;" glyph-name="crying" d="M512-64c282.77 0 512 229.23 512 512s-229.23 512-512 512-512-229.23-512-512 229.23-512 512-512zM512 864c229.75 0 416-186.25 416-416s-186.25-416-416-416-416 186.25-416 416 186.25 416 416 416zM800 576h-128c-17.674 0-32 14.328-32 32s14.326 32 32 32h128c17.674 0 32-14.328 32-32s-14.326-32-32-32zM352 576h-128c-17.672 0-32 14.328-32 32s14.328 32 32 32h128c17.672 0 32-14.328 32-32s-14.328-32-32-32zM608 104c-8.19 0-16.378 3.124-22.626 9.374-4.582 4.582-29.42 14.626-73.374 14.626s-68.79-10.044-73.374-14.626c-12.496-12.496-32.758-12.496-45.254 0-12.498 12.496-12.498 32.758 0 45.254 30.122 30.12 92.994 33.372 118.628 33.372 25.632 0 88.506-3.252 118.626-33.374 12.498-12.496 12.498-32.758 0-45.254-6.248-6.248-14.436-9.372-22.626-9.372zM736 384c-17.674 0-32 14.326-32 32v64c0 17.672 14.326 32 32 32s32-14.328 32-32v-64c0-17.674-14.326-32-32-32zM736 192c-17.674 0-32 14.326-32 32v64c0 17.674 14.326 32 32 32s32-14.326 32-32v-64c0-17.674-14.326-32-32-32zM288 384c-17.672 0-32 14.326-32 32v64c0 17.672 14.328 32 32 32s32-14.328 32-32v-64c0-17.674-14.328-32-32-32zM288 192c-17.672 0-32 14.326-32 32v64c0 17.674 14.328 32 32 32s32-14.326 32-32v-64c0-17.674-14.328-32-32-32z" />
<glyph unicode="&#xea0f;" glyph-name="cross" d="M933.331 200.404c-0.004 0.004-0.007 0.007-0.009 0.008l-260.383 260.388 260.383 260.388c0.004 0.004 0.007 0.006 0.009 0.008 2.803 2.804 4.829 6.081 6.129 9.57 3.56 9.536 1.529 20.688-6.138 28.357l-123.002 123.002c-7.669 7.667-18.817 9.694-28.355 6.136-3.487-1.3-6.764-3.325-9.571-6.127 0-0.004-0.004-0.006-0.007-0.008l-260.386-260.388-260.386 260.388c-0.004 0.004-0.006 0.006-0.008 0.008-2.804 2.802-6.081 4.828-9.568 6.127-9.538 3.561-20.688 1.53-28.357-6.136l-123.004-123.004c-7.669-7.669-9.696-18.819-6.137-28.355 1.301-3.487 3.327-6.766 6.129-9.57 0.004-0.002 0.006-0.006 0.008-0.008l260.388-260.386-260.388-260.388c-0.002-0.004-0.006-0.006-0.007-0.008-2.802-2.804-4.828-6.081-6.131-9.568-3.561-9.536-1.53-20.688 6.137-28.357l123.004-123.002c7.669-7.669 18.819-9.696 28.357-6.137 3.487 1.301 6.764 3.327 9.57 6.129 0.002 0.004 0.006 0.006 0.008 0.008l260.386 260.388 260.386-260.388c0.004-0.002 0.007-0.006 0.009-0.007 2.806-2.803 6.081-4.829 9.568-6.131 9.538-3.56 20.69-1.53 28.355 6.137l123.002 123.004c7.669 7.669 9.698 18.821 6.138 28.357-1.301 3.487-3.327 6.762-6.131 9.568z" />
<glyph unicode="&#xeab0;" glyph-name="github" d="M512.008 947.358c-282.738 0-512.008-229.218-512.008-511.998 0-226.214 146.704-418.132 350.136-485.836 25.586-4.738 34.992 11.11 34.992 24.632 0 12.204-0.48 52.542-0.696 95.324-142.448-30.976-172.504 60.41-172.504 60.41-23.282 59.176-56.848 74.916-56.848 74.916-46.452 31.778 3.51 31.124 3.51 31.124 51.4-3.61 78.476-52.766 78.476-52.766 45.672-78.27 119.776-55.64 149.004-42.558 4.588 33.086 17.852 55.68 32.506 68.464-113.73 12.942-233.276 56.85-233.276 253.032 0 55.898 20.004 101.574 52.76 137.428-5.316 12.9-22.854 64.972 4.952 135.5 0 0 43.006 13.752 140.84-52.49 40.836 11.348 84.636 17.036 128.154 17.234 43.502-0.198 87.336-5.886 128.256-17.234 97.734 66.244 140.656 52.49 140.656 52.49 27.872-70.528 10.35-122.6 5.036-135.5 32.82-35.856 52.694-81.532 52.694-137.428 0-196.654-119.778-239.95-233.79-252.624 18.364-15.89 34.724-47.046 34.724-94.812 0-68.508-0.596-123.644-0.596-140.508 0-13.628 9.222-29.594 35.172-24.566 203.322 67.776 349.842 259.626 349.842 485.768 0 282.78-229.234 511.998-511.992 511.998z" />
<glyph unicode="&#xeabe;" glyph-name="appleinc" d="M791.498 415.908c-1.294 129.682 105.758 191.876 110.542 194.966-60.152 88.020-153.85 100.078-187.242 101.472-79.742 8.074-155.596-46.948-196.066-46.948-40.368 0-102.818 45.754-168.952 44.552-86.916-1.292-167.058-50.538-211.812-128.38-90.304-156.698-23.126-388.84 64.89-515.926 43.008-62.204 94.292-132.076 161.626-129.58 64.842 2.588 89.362 41.958 167.756 41.958s100.428-41.958 169.050-40.67c69.774 1.296 113.982 63.398 156.692 125.796 49.39 72.168 69.726 142.038 70.924 145.626-1.548 0.706-136.060 52.236-137.408 207.134zM662.562 796.478c35.738 43.358 59.86 103.512 53.28 163.522-51.478-2.096-113.878-34.29-150.81-77.55-33.142-38.376-62.148-99.626-54.374-158.436 57.466-4.484 116.128 29.204 151.904 72.464z" />
<glyph unicode="&#xeac0;" glyph-name="android" d="M896 576c-35.2 0-64-28.8-64-64v-256c0-35.2 28.8-64 64-64s64 28.8 64 64v256c0 35.2-28.8 64-64 64zM128 576c-35.2 0-64-28.8-64-64v-256c0-35.2 28.8-64 64-64s64 28.8 64 64v256c0 35.2-28.802 64-64 64zM224 224c0-53.020 42.98-96 96-96v0-128c0-35.2 28.8-64 64-64s64 28.8 64 64v128h128v-128c0-35.2 28.8-64 64-64s64 28.8 64 64v128c53.020 0 96 42.98 96 96v352h-576v-352zM798.216 639.998c-9.716 87.884-59.004 163.792-129.62 209.646l32.024 64.046c7.904 15.806 1.496 35.028-14.31 42.932s-35.030 1.496-42.932-14.312l-32.142-64.286-8.35 3.316c-28.568 9.502-59.122 14.66-90.886 14.66-31.762 0-62.316-5.158-90.888-14.656l-8.348-3.316-32.142 64.282c-7.904 15.808-27.128 22.212-42.932 14.312-15.808-7.904-22.214-27.126-14.312-42.932l32.022-64.046c-70.616-45.852-119.904-121.762-129.622-209.644v-32h574.222v31.998h-1.784zM416 704c-17.674 0-32 14.328-32 32 0 17.648 14.288 31.958 31.93 31.996 0.032 0 0.062-0.002 0.094-0.002 0.018 0 0.036 0.002 0.052 0.002 17.638-0.042 31.924-14.35 31.924-31.996 0-17.672-14.326-32-32-32zM608 704c-17.674 0-32 14.328-32 32 0 17.646 14.286 31.954 31.924 31.996 0.016 0 0.034-0.002 0.050-0.002 0.032 0 0.064 0.002 0.096 0.002 17.64-0.038 31.93-14.348 31.93-31.996 0-17.672-14.326-32-32-32z" />
<glyph unicode="&#xeac2;" glyph-name="windows8" d="M0.35 448l-0.35 312.074 384 52.144v-364.218zM448 821.518l511.872 74.482v-448h-511.872zM959.998 384l-0.126-448-511.872 72.016v375.984zM384 16.164l-383.688 52.594-0.020 315.242h383.708z" />
</font>
</defs>
</svg>
